<?xml version="1.0" encoding="UTF-8" standalone="no"?><!-- Generator: Gravit.io --><svg xmlns="http://www.w3.org/2000/svg" xmlns:xlink="http://www.w3.org/1999/xlink" style="isolation:isolate" viewBox="0 0 370 269" width="370pt" height="269pt"><defs><clipPath id="_clipPath_5ukLwX8pmxaI5VJjaGgx7P7G1HCTkvzR"><rect width="370" height="269"/></clipPath></defs><g clip-path="url(#_clipPath_5ukLwX8pmxaI5VJjaGgx7P7G1HCTkvzR)"><rect width="370" height="269" style="fill:rgb(193,0,0)" fill-opacity="0"/><path d=" M 0 0 L 33.7 0 C 33.3 7.7 34.7 15.3 34.3 23 C 34 27 34.9 31.3 32.9 35.1 C 31.1 35.2 29.3 35.2 27.5 35.6 C 29.4 35.8 31.2 35.7 33 35.6 C 33 60.8 33 86.1 33 111.3 C 26.5 111.7 19.9 111.4 13.6 112.8 C 20.1 112.7 26.5 112.2 33 112.2 C 33.5 117.1 32.9 122.1 33 127 C 33 147.8 33 168.5 33 189.3 C 22 189 11 189.4 0 189 L 0 0 L 0 0 Z " fill="none"/><path d=" M 33.7 0 L 34.2 0 C 34.5 11.2 35 22.5 34.8 33.8 C 60.3 33.9 85.8 34.1 111.3 34 C 110.8 25.3 111.6 16.5 110.8 7.8 C 110.8 6.5 110.8 5.3 111 4 C 112.4 13.9 111.6 23.9 112.1 33.9 C 137.7 34.2 163.2 33.9 188.8 34 C 188.5 25.4 188.2 16.8 187.8 8.2 C 187.9 8.5 188.3 8.9 188.5 9.1 C 188.7 17.4 189.5 25.7 189.7 34 C 214.2 33.9 238.7 34.4 263.1 34.3 C 263.1 31 263 27.7 262.8 24.4 L 263.8 24.4 C 263.8 27.7 263.9 31 264 34.3 C 267.6 34.5 271.2 34.4 274.8 34.4 L 274.3 35.9 L 275.1 35.5 C 281 35.3 286.8 36 292.7 35.9 C 304.4 35 316.3 35.8 328 35.7 C 328.2 35.3 328.4 34.6 328.6 34.3 C 330.1 34.3 331.7 34.4 333.3 34.6 C 332.5 34.8 330.9 35.3 330.1 35.5 C 334.5 35.7 338.9 35.9 343.3 35.5 C 341.2 35.1 339.1 34.8 337 34.4 C 343.2 33.6 349.4 35.1 355.7 34.9 C 359.6 34.9 363.6 34.2 367.5 35.5 C 359.5 35.3 351.5 35.4 343.5 34.8 C 343.8 36.2 343.9 37.6 344 39 C 344.2 63.2 343.6 87.3 343.7 111.5 C 352.4 112.4 361.3 110.7 370 111.8 L 370 112.5 C 361.6 111.6 353.2 113 344.7 112.7 C 344.7 138 344.8 163.3 344.7 188.6 C 348.5 189.3 352.5 188.1 356.3 189.5 C 326.7 189.5 297.2 189.5 267.7 189.5 C 267.8 192.7 267.9 195.8 267.8 199 C 267.6 204.4 269.1 210.1 267.2 215.5 C 267.6 206.8 267.2 198.2 266.7 189.5 C 257.1 188.8 247.6 189.8 238 189.3 C 221.9 189.8 205.8 189.2 189.8 189.2 C 188.1 196.3 190.4 203.5 188.4 210.5 C 188.4 203.8 188.7 197.2 188.3 190.5 C 163 190 137.7 190.5 112.4 190.1 C 112.4 195.7 112.2 201.3 112.4 206.9 C 112.5 209.1 112 211.2 111.3 213.2 C 111.6 205.6 111.7 197.9 111.3 190.2 C 85.9 190.3 60.6 190.2 35.3 190.2 C 35.4 197.2 34.7 204.2 34.5 211.2 C 33.6 204.3 35 197.3 34.6 190.3 C 23.1 189 11.5 190.3 0 189.6 L 0 189 C 11 189.4 22 189 33 189.3 C 33 168.5 33 147.8 33 127 C 32.9 122.1 33.5 117.1 33 112.2 C 26.5 112.2 20.1 112.7 13.6 112.8 C 19.9 111.4 26.5 111.7 33 111.3 C 33 86.1 33 60.8 33 35.6 C 31.2 35.7 29.4 35.8 27.5 35.6 C 29.3 35.2 31.1 35.2 32.9 35.1 C 34.9 31.3 34 27 34.3 23 C 34.7 15.3 33.3 7.7 33.7 0 L 33.7 0 Z " fill="rgb(0,0,0)"/><path d=" M 34.2 0 L 370 0 L 370 111.8 C 361.3 110.7 352.4 112.4 343.7 111.5 C 343.6 87.3 344.2 63.2 344 39 C 343.9 37.6 343.8 36.2 343.5 34.8 C 351.5 35.4 359.5 35.3 367.5 35.5 C 363.6 34.2 359.6 34.9 355.7 34.9 C 349.4 35.1 343.2 33.6 337 34.4 C 339.1 34.8 341.2 35.1 343.3 35.5 C 338.9 35.9 334.5 35.7 330.1 35.5 C 330.9 35.3 332.5 34.8 333.3 34.6 C 331.7 34.4 330.1 34.3 328.6 34.3 C 328.4 34.6 328.2 35.3 328 35.7 C 316.3 35.8 304.4 35 292.7 35.9 C 293.3 35.4 294.5 34.5 295.1 34 C 293.3 34 291.5 34 289.7 34.2 L 289.2 34.2 C 285.1 34.5 280.9 33.7 276.8 34 C 276.4 34.4 275.5 35.1 275.1 35.5 L 274.3 35.9 L 274.8 34.4 C 271.2 34.4 267.6 34.5 264 34.3 C 263.9 31 263.8 27.7 263.8 24.4 L 262.8 24.4 C 263 27.7 263.1 31 263.1 34.3 C 238.7 34.4 214.2 33.9 189.7 34 C 189.5 25.7 188.7 17.4 188.5 9.1 C 188.3 8.9 187.9 8.5 187.8 8.2 C 188.2 16.8 188.5 25.4 188.8 34 C 163.2 33.9 137.7 34.2 112.1 33.9 C 111.6 23.9 112.4 13.9 111 4 C 110.8 5.3 110.8 6.5 110.8 7.8 C 111.6 16.5 110.8 25.3 111.3 34 C 85.8 34.1 60.3 33.9 34.8 33.8 C 35 22.5 34.5 11.2 34.2 0 L 34.2 0 Z " fill="none"/><path d=" M 275.1 35.5 C 275.5 35.1 276.4 34.4 276.8 34 C 280.9 33.7 285.1 34.5 289.2 34.2 C 289.3 34.2 289.5 34.4 289.6 34.4 L 289.7 34.2 C 291.5 34 293.3 34 295.1 34 C 294.5 34.5 293.3 35.4 292.7 35.9 C 286.8 36 281 35.3 275.1 35.5 L 275.1 35.5 Z " fill="rgb(145,130,106)"/><path d=" M 289.2 34.2 L 289.7 34.2 L 289.6 34.4 C 289.5 34.4 289.3 34.2 289.2 34.2 L 289.2 34.2 Z " fill="rgb(0,0,0)"/><path d=" M 320.6 34.4 C 322.4 33.8 324.4 34.1 326.2 34.1 C 328.1 34.8 324.5 35.3 324 35.2 C 323.2 35.1 321.5 34.9 320.6 34.8 L 320.6 34.4 L 320.6 34.4 Z " fill="rgb(105,16,16)"/><path d=" M 4 35.7 C 6.1 34.6 8.6 35.5 10.9 35.3 C 16.3 34.9 21.6 35.3 26.9 35.3 L 26.9 35.8 C 19.2 35.8 11.6 35.9 4 35.7 L 4 35.7 Z " fill="rgb(0,0,0)"/><path d=" M 35 35.8 C 43.4 35.8 51.7 35.6 60 36 C 76.9 36.1 93.9 35.9 110.8 36.1 C 110.7 50.2 110.7 64.3 110.8 78.4 C 99.8 78.1 88.6 79 77.8 81.6 C 69 83.9 59.8 87.7 54.8 95.8 C 52 99.9 51.6 104.9 51.7 109.7 C 46.2 109.8 40.6 109.7 35.1 109.8 C 35.2 85.1 35.1 60.4 35 35.8 L 35 35.8 Z " fill="rgb(178,67,4)"/><path d=" M 112.8 36 C 137.8 36 162.8 36 187.8 36 C 187.7 46.9 187.7 57.9 187.8 68.8 C 180.5 70.8 173.3 72.9 166.1 75.2 C 152 78.7 137.5 79.6 123 79.8 C 119.6 79.7 116.2 78.9 112.8 78.7 C 112.6 64.5 112.8 50.2 112.8 36 L 112.8 36 Z " fill="rgb(255,171,0)"/><path d=" M 189.8 36 C 214.1 36 238.4 36.4 262.7 36.3 C 262.7 47.4 262.9 58.5 262.7 69.7 C 252.3 62.5 239.3 61.4 227.1 61.8 C 214.5 62.5 202.1 65.2 189.9 68.3 C 190.3 57.5 189.5 46.8 189.8 36 L 189.8 36 Z " fill="rgb(241,206,112)"/><path d=" M 266.2 68 C 266.4 57.8 265.9 47.6 266.5 37.4 C 291.6 37.8 316.8 37.8 342 37.8 C 342.2 60.5 341.6 83.3 341.8 106 C 341.8 107.9 341.7 109.8 341.5 111.6 C 333.4 111.1 325.3 112 317.2 111.2 C 309.9 105.3 300.1 103 290.9 104.7 C 287.8 105.3 285 107 283.7 109.9 L 285.7 109.3 C 285.4 109.5 285 109.8 284.7 110 C 284.3 110.2 283.6 110.7 283.2 111 C 285.1 104.6 286.3 97.3 282.7 91.3 C 278.6 84.6 273 79 267.4 73.6 C 265.7 72.3 266.4 69.9 266.2 68 L 266.2 68 Z " fill="rgb(178,67,4)"/><path d=" M 282.4 57.4 C 289 53.8 296.9 52.6 304.2 54.3 C 308.8 55.3 313.6 57.9 315.4 62.5 C 316.7 66.6 315 71.1 311.8 73.8 C 306.2 78.8 298.4 80.9 291 80.7 C 285.4 80.6 279.4 79 275.6 74.6 C 274.1 73.1 274.7 71 274.8 69.2 L 275.6 69.8 C 278.2 71.8 280.2 74.5 283.3 75.7 C 290.1 78.3 297.8 77.5 304.4 74.5 C 308.2 72.7 312.3 69.6 312.5 65.1 C 311.8 62.5 310 60.5 307.7 59.3 C 302.2 56.6 295.7 56.5 289.8 57.9 L 289.3 58 C 283.7 59.2 277.6 62.2 275.8 68.2 L 274.7 69 C 274.1 63.8 278.3 59.8 282.4 57.4 L 282.4 57.4 Z " fill="rgb(0,0,0)"/><path d=" M 289.8 57.9 C 295.7 56.5 302.2 56.6 307.7 59.3 C 310 60.5 311.8 62.5 312.5 65.1 C 312.3 69.6 308.2 72.7 304.4 74.5 C 297.8 77.5 290.1 78.3 283.3 75.7 C 280.2 74.5 278.2 71.8 275.6 69.8 C 275.7 69.4 275.8 68.6 275.8 68.2 C 277.6 62.2 283.7 59.2 289.3 58 C 285.7 59.6 281.5 61.2 279.9 65.1 C 278.5 68 280.5 71.5 283.2 72.8 C 289.8 76.1 298.1 75.1 304 70.9 C 307.1 68.9 309 64 305.9 61.1 C 301.7 57 295.3 57.3 289.8 57.9 L 289.8 57.9 Z " fill="rgb(255,171,0)"/><path d=" M 289.3 58 L 289.8 57.9 C 295.3 57.3 301.7 57 305.9 61.1 C 309 64 307.1 68.9 304 70.9 C 298.1 75.1 289.8 76.1 283.2 72.8 C 280.5 71.5 278.5 68 279.9 65.1 C 281.5 61.2 285.7 59.6 289.3 58 L 289.3 58 Z " fill="rgb(255,255,255)"/><path d=" M 190.2 70.9 C 205.8 66.9 221.8 63.9 237.9 65 C 247.1 65.9 256.7 68.6 263.5 74.9 C 263.5 75.4 263.3 76.5 263.2 77 L 264.1 76.9 L 264.1 75 C 268.5 79.9 273.3 84.4 277.3 89.6 C 279.8 92.8 281.7 96.7 281.7 100.9 C 281.4 104.5 280.1 107.9 279 111.3 C 277.3 111.5 275.7 111.5 274 111.5 C 275.9 106.5 277.3 100.6 274.5 95.6 C 271.1 89.5 265.7 85 260.9 80.1 C 254.4 73.5 245 70.7 235.9 69.8 C 220.5 68.5 205 71.2 190.1 75 C 190.3 73.6 190.3 72.3 190.2 70.9 L 190.2 70.9 Z " fill="rgb(255,171,0)"/><path d=" M 190.1 75 C 205 71.2 220.5 68.5 235.9 69.8 C 245 70.7 254.4 73.5 260.9 80.1 C 265.7 85 271.1 89.5 274.5 95.6 C 277.3 100.6 275.9 106.5 274 111.5 C 272 112.1 269.2 111.5 267.8 113.4 C 269.7 113 271.5 112.7 273.4 112.6 C 269.7 121 265.9 129.7 259.1 136.1 C 251.3 143.8 239.9 147.5 229.1 146.3 C 218.7 145.3 209 140.5 200.7 134.2 C 194.6 129.4 186 128.1 178.7 130.9 C 162.6 136.9 146.5 143.4 129.4 146.2 C 118 148 105.8 147.9 95.2 142.7 C 83.2 136.9 75 125.2 71 112.7 L 70.9 112.2 C 69.7 107.5 69.5 102.2 71.8 97.8 C 74.2 92.9 79 89.8 83.9 87.8 C 92.6 84.2 102.1 83.3 111.5 82.7 C 111.6 86.5 111.4 90.4 111 94.2 L 111.9 94.1 C 111.8 90.2 112.5 86.5 112.3 82.6 C 130.2 82.7 148.2 84.1 166 81.2 C 173.8 79.4 181.4 77 189.2 75.2 C 189.2 75.9 189.3 77.4 189.3 78.1 C 189.7 77.1 189.9 76.1 190.1 75 L 190.1 75 Z " fill="rgb(255,255,255)"/><path d=" M 165 77.6 C 173.2 75.4 181.4 73 189.6 71 C 189.5 72.4 189.4 73.8 189.2 75.2 C 181.4 77 173.8 79.4 166 81.2 C 148.2 84.1 130.2 82.7 112.3 82.6 L 111.5 82.6 L 112.2 81.7 C 116.7 80.8 121.3 80.2 125.9 80.6 C 139 81.2 152.2 80.3 165 77.6 L 165 77.6 Z " fill="rgb(255,171,0)"/><path d=" M 305.1 81.4 C 311 81.4 317.1 82.6 321.9 86.1 C 324.2 87.9 326.2 91 325.2 93.9 C 324 97.8 320 99.6 316.4 100.6 C 309.2 102.5 301.3 102.1 294.3 99.6 C 291.1 98.3 287.9 96.2 286.5 93 C 287.1 90 288 86.5 290.9 84.8 C 295.2 82.2 300.2 81.4 305.1 81.4 L 305.1 81.4 Z " fill="rgb(0,0,0)"/><path d=" M 72.9 86.8 C 85.2 82.4 98.4 82.1 111.4 81.4 L 111.5 82.7 C 102.1 83.3 92.6 84.2 83.9 87.8 C 79 89.8 74.2 92.9 71.8 97.8 C 69.5 102.2 69.7 107.5 70.9 112.2 C 65.9 110.8 60.8 111.9 55.7 111.4 C 54.9 106.8 55.1 101.8 57.8 97.8 C 61.1 92.4 66.9 88.9 72.9 86.8 L 72.9 86.8 Z " fill="rgb(255,171,0)"/><path d=" M 288.3 90.1 C 292.2 83.4 301.1 84 307.7 85 C 310.4 86.1 313.5 87.2 314.9 90 C 315.7 92.6 313.4 94.6 311.2 95.4 C 305.7 97.6 299.4 97 293.8 95.3 C 291.5 94.2 289.8 92.1 288.3 90.1 L 288.3 90.1 Z " fill="rgb(255,255,255)"/><path d=" M 307.7 85 C 312.6 85.5 318.1 86.6 321.4 90.6 C 323.4 93.4 319.7 95.7 317.4 96.5 C 309.9 99.3 301.1 98.9 293.8 95.3 C 299.4 97 305.7 97.6 311.2 95.4 C 313.4 94.6 315.7 92.6 314.9 90 C 313.5 87.2 310.4 86.1 307.7 85 L 307.7 85 Z " fill="rgb(255,171,0)"/><path d=" M 84.7 93.1 C 85.3 91.6 86.8 90.8 88 89.8 C 89 90.9 90.1 91.9 91.1 93 C 90.1 94.1 89 95.1 88 96.2 C 86.8 95.2 85.5 94.4 84.7 93.1 L 84.7 93.1 Z " fill="rgb(178,67,4)"/><path d=" M 230.5 93.7 C 232 93.3 233.5 93 235.1 92.9 C 234.9 94.9 234.8 97 234.8 99.1 C 237.2 99 239.6 98.7 242 98.6 C 242 99.5 242 101.2 242 102.1 C 240 101.9 238 101.8 236 101.7 C 234.5 105.6 234.8 110 235.3 114 C 236.2 116.8 239.8 115.8 242 116.1 C 242 117.5 242 118.9 242 120.3 C 237.9 121 232.7 120.2 230.8 116 C 229.9 111.4 231.8 106.8 230.9 102.2 C 229.5 102.2 228.1 102.2 226.7 102.2 C 227.4 100.3 228.7 98.8 230.8 98.6 C 230.7 97 230.6 95.4 230.5 93.7 L 230.5 93.7 Z " fill="rgb(178,67,4)"/><path d=" M 85.7 98.7 C 87.2 98.3 88.6 98 90.1 97.8 C 90.3 104.9 91 112 90.1 119 C 89.2 120.4 87.2 119.8 85.8 120.1 C 85.8 113 85.1 105.8 85.7 98.7 L 85.7 98.7 Z " fill="rgb(178,67,4)"/><path d=" M 96 98.1 C 97.3 98.1 98.7 98 100 98 C 100 98.6 100 99.8 100 100.4 C 103.2 97.1 108.9 97.2 112.2 100.5 C 115.3 98.7 119 97.1 122.6 98.5 C 125.3 99.5 126.6 102.4 127.1 105 C 128.1 110 127.5 115.1 125.9 119.9 C 124.6 120 123.3 120 122 120 C 121.6 114.2 123.1 107.9 120.5 102.4 C 118.8 101 115.7 101.7 114.1 103.1 C 111.4 108.1 113.7 113.9 113.3 119.2 C 111.9 119.7 110.5 120 109 120.1 C 108.8 114.8 109.4 109.3 108.6 104 C 107.4 100.8 103.3 101.7 100.9 102.9 C 98.6 108.1 100.8 113.7 100.2 119 C 98.8 120.6 96.5 119.8 94.8 120.1 C 95 112.7 94 105.3 96 98.1 L 96 98.1 Z " fill="rgb(178,67,4)"/><path d=" M 130.8 98.9 C 132.2 98.5 133.6 98.2 135 97.9 C 135 98.8 135 100.7 135 101.7 C 140.7 95.8 152.9 96.9 155.8 105.2 C 157.4 108 156.7 111.5 155 114 C 152.8 117.4 149.3 120.8 145 120.5 C 141.8 120.8 139 119 136.2 117.8 C 136.3 120.5 136.9 123.3 136.2 125.9 C 135 127.6 132.5 126.7 130.7 127.1 C 130.9 117.7 130 108.3 130.8 98.9 L 130.8 98.9 Z " fill="rgb(178,67,4)"/><path d=" M 159.7 98.6 C 161.1 98.3 162.6 98 164 97.8 C 164 99.3 164 100.7 164 102.2 C 166.4 99 170.3 97.6 174.2 97.9 C 173.7 102 169.4 102.6 166.5 104.4 C 163.5 108.7 165.1 114.2 164.1 119 C 163.1 120.4 161.2 119.8 159.8 120.1 C 159.8 113 159.1 105.8 159.7 98.6 L 159.7 98.6 Z " fill="rgb(178,67,4)"/><path d=" M 181.5 98.6 C 189.1 94.8 199.5 100.3 200 108.9 C 200.5 114.7 194.9 118.5 190 120.1 C 184.2 121.3 177.7 118.4 174.7 113.2 C 172 107.5 176 100.8 181.5 98.6 L 181.5 98.6 Z " fill="rgb(178,67,4)"/><path d=" M 203.7 98.6 C 205.1 98.3 206.6 98 208 97.8 C 208 98.5 208 99.8 208 100.4 C 212.1 96.2 220 96.5 223.4 101.5 C 225.9 107 224.3 113.2 224.1 119 C 222.8 119.7 221.3 119.8 220 120.2 C 219.9 116.2 220.7 112.2 220.5 108.2 C 220.2 105.8 219.6 102.7 216.9 101.9 C 213.8 101.2 209.7 102.1 208.6 105.4 C 207.2 109.9 208.6 114.7 208.3 119.3 C 206.8 119.8 205.3 120 203.8 120.1 C 203.8 113 203.1 105.8 203.7 98.6 L 203.7 98.6 Z " fill="rgb(178,67,4)"/><path d=" M 245.7 103.1 C 246.3 100.8 247.5 98.3 250.1 97.8 C 254.1 96.9 258.5 97.7 261.9 100.1 C 263.4 101.2 263 103.3 263.2 105 C 263.4 109.7 263.9 114.4 263.1 119 C 262.2 120.3 260.4 119.8 259 120.1 C 259 119.5 259 118.3 259 117.7 C 254.5 123.4 245.1 120.3 243.1 114 C 241.9 109.9 245.2 106 249 104.9 C 252.4 104.3 255.8 104.9 259.1 106 C 258.6 104.9 258.5 103.2 257.1 102.8 C 253.4 101.1 249.4 102.4 245.7 103.1 L 245.7 103.1 Z " fill="rgb(178,67,4)"/><path d=" M 140.1 102.2 C 144.9 100.6 151.3 103.6 151.5 109 C 151.4 116.2 140.8 118.7 136.4 113.6 C 133.7 109.8 135.5 103.7 140.1 102.2 L 140.1 102.2 Z " fill="rgb(255,255,255)"/><path d=" M 184.2 102.3 C 189.2 100.4 196.1 104.2 195.5 110 C 194.6 115.6 187.3 117.8 182.6 115.3 C 179.3 113.9 177.3 109.5 179.1 106.3 C 180.5 104.6 182.2 103.1 184.2 102.3 L 184.2 102.3 Z " fill="rgb(255,255,255)"/><path d=" M 285.7 109.3 C 289.6 106 295.2 106.6 300 107.4 C 304.5 108.3 308.9 110 312.9 112.2 L 312 113.8 C 315.5 112.3 319 118.5 315.5 120.3 C 312.1 122.4 307.9 122.5 304 122 C 306.6 121.6 309.6 121.4 311.6 119.5 C 313.6 117.5 311.9 114.5 310.1 113 C 306.1 109.8 301 108.4 296 108.2 C 293.4 108.3 290.4 108.6 288.4 110.4 C 287 111.7 287.7 113.6 287.8 115.2 C 286.6 113.6 285.6 111.8 284.7 110 C 285 109.8 285.4 109.5 285.7 109.3 L 285.7 109.3 Z " fill="rgb(255,171,0)"/><path d=" M 251.4 108.5 C 254.3 107.2 258.1 109.2 259 112.1 C 258.8 116.9 251.1 118.2 248.9 114.1 C 247.2 111.9 249.4 109.4 251.4 108.5 L 251.4 108.5 Z " fill="rgb(255,255,255)"/><path d=" M 288.4 110.4 C 290.4 108.6 293.4 108.3 296 108.2 C 301 108.4 306.1 109.8 310.1 113 C 311.9 114.5 313.6 117.5 311.6 119.5 C 309.6 121.4 306.6 121.6 304 122 C 298.1 121.5 292 119.7 287.8 115.2 C 287.7 113.6 287 111.7 288.4 110.4 L 288.4 110.4 Z " fill="rgb(255,255,255)"/><path d=" M 35.2 112.2 C 40.8 112.3 46.4 112.5 51.9 112.4 C 55.3 126.6 63.2 140.2 75.4 148.6 C 85.8 155.7 98.9 157.2 111.2 156.3 C 111.6 166.9 111.6 177.6 111.3 188.2 C 85.8 188.3 60.2 188.2 34.6 188.3 C 35.1 179.5 34.1 170.6 35.1 161.9 C 34.4 156.6 35.8 151.3 35.2 146 C 35.5 137.7 34.5 129.4 35.2 121.1 C 35.3 118.1 35.2 115.2 35.2 112.2 L 35.2 112.2 Z " fill="rgb(255,171,0)"/><path d=" M 344.7 112.7 C 353.2 113 361.6 111.6 370 112.5 L 370 269 L 157.8 269 C 162.4 265.8 168.1 264.3 172.1 260.1 C 172.8 259.4 173.6 258.7 174.4 258.1 C 181.4 253.2 186.3 245.5 187.8 237.1 C 188.1 227.7 186.5 217.8 180.9 210 C 173.5 200.3 161.2 194.6 149 195.2 C 133.1 195.6 117.4 207 114.2 222.9 C 113.7 224.8 113.3 226.6 113.1 228.6 C 112 245.7 125.1 261.9 141.9 265.1 C 149.7 267.2 157.7 265.3 165.5 264.3 C 162.8 265.3 159.6 268.4 156.7 266.8 C 157 267.2 157.5 268.1 157.8 268.6 C 156 268.5 154.3 268.6 152.5 268.6 L 153.5 269 L 141.4 269 L 142.6 268.9 C 140.4 268.6 138.2 268.6 136.1 268.7 C 136.5 268.1 137.2 266.9 137.6 266.3 L 136 267.6 C 126.7 264.3 118.3 257.6 114.7 248.3 C 111.7 242.1 112.2 235.2 112.6 228.7 C 109.2 241.9 115.6 256.8 127.2 263.9 C 130 266 133.7 266.6 136.2 269 L 0 269 L 0 189.6 C 11.5 190.3 23.1 189 34.6 190.3 C 35 197.3 33.6 204.3 34.5 211.2 C 34.7 204.2 35.4 197.2 35.3 190.2 C 60.6 190.2 85.9 190.3 111.3 190.2 C 111.7 197.9 111.6 205.6 111.3 213.2 C 112 211.2 112.5 209.1 112.4 206.9 C 112.2 201.3 112.4 195.7 112.4 190.1 C 137.7 190.5 163 190 188.3 190.5 C 188.7 197.2 188.4 203.8 188.4 210.5 C 190.4 203.5 188.1 196.3 189.8 189.2 C 205.8 189.2 221.9 189.8 238 189.3 C 247.6 189.8 257.1 188.8 266.7 189.5 C 267.2 198.2 267.6 206.8 267.2 215.5 C 269.1 210.1 267.6 204.4 267.8 199 C 267.9 195.8 267.8 192.7 267.7 189.5 C 297.2 189.5 326.7 189.5 356.3 189.5 C 352.5 188.1 348.5 189.3 344.7 188.6 C 344.8 163.3 344.7 138 344.7 112.7 L 344.7 112.7 Z " fill="none"/><path d=" M 55.8 112.3 C 60.9 112.2 66 112.1 71 112.7 C 75 125.2 83.2 136.9 95.2 142.7 C 105.8 147.9 118 148 129.4 146.2 C 146.5 143.4 162.6 136.9 178.7 130.9 C 186 128.1 194.6 129.4 200.7 134.2 C 209 140.5 218.7 145.3 229.1 146.3 C 239.9 147.5 251.3 143.8 259.1 136.1 C 265.9 129.7 269.7 121 273.4 112.6 C 275.1 112.5 276.7 112.5 278.4 112.5 C 275 120.1 271.6 127.8 266.6 134.4 L 266 134.5 C 265.9 133.8 265.6 132.5 265.5 131.8 C 265.1 133.6 265.6 135.8 264.2 137.2 C 256.9 145.5 246.1 150.6 235 150.6 C 222.1 150.8 209.9 144.9 200 137.1 C 193.1 131.6 183.4 130 175.1 132.8 C 154.8 140.6 134.5 149.9 112.7 152.6 C 112.4 152.1 111.7 151.2 111.4 150.7 C 111.4 151.2 111.3 152.2 111.3 152.7 C 101.1 153.6 90.3 152.7 81.2 147.8 C 67.9 140.6 58.9 127 55.8 112.3 L 55.8 112.3 Z " fill="rgb(255,171,0)"/><path d=" M 282 113.1 C 286.4 121.9 296.8 125.2 306 125.8 C 310.8 125.8 316.9 125.4 319.8 120.8 C 321.4 118.5 320 115.7 319.3 113.4 C 327 113.6 334.8 113.6 342.6 113.4 C 342.9 138.1 342.8 162.9 342.6 187.6 C 317.7 187.4 292.7 187.5 267.8 187.5 C 267.6 184.8 266.9 182.1 266.6 179.4 C 267.5 172.7 267.1 166 267 159.3 C 273.3 163.8 281.3 166.2 289 165 C 291.3 164.9 291.1 162 291.8 160.6 C 287.8 161.6 283.6 162.8 279.7 161.1 C 281.6 160.6 285.3 160.8 285 157.9 C 284.4 155.2 281.8 153.6 279.8 152 C 283.8 153.6 289.3 155.8 290 160.6 C 290.6 159.9 291.1 159.3 291.7 158.6 C 287.3 149.5 276 145.3 266.4 146.4 C 266.3 144.4 266.3 142.3 266.3 140.3 C 273.6 132.6 277.7 122.7 282 113.1 L 282 113.1 Z " fill="rgb(255,171,0)"/><path d=" M 280.3 125.4 C 285.8 123.3 292 124.4 297.2 126.6 C 301.8 128.8 306.6 132.5 307.3 138 C 307.8 142 304.7 145.6 301 146.8 C 295 148.8 288.1 147.7 282.7 144.3 C 278.1 141.7 274.5 136.6 275.7 131.1 C 275.2 128 277.9 126.4 280.3 125.4 L 280.3 125.4 Z " fill="rgb(0,0,0)"/><path d=" M 285.2 127.9 C 291 127.5 297.1 129.6 301.3 133.8 C 303.3 135.8 305 139.3 302.6 141.7 C 297.9 145.7 290.9 144.5 285.6 142.2 C 289.1 142.5 293 143.1 296.1 141 C 298.1 139.6 298.5 136.6 297.3 134.6 C 294.8 130.3 289.8 128.6 285.2 127.9 L 285.2 127.9 Z " fill="rgb(255,171,0)"/><path d=" M 276.6 133 C 277 128.9 281.8 128 285.2 127.9 C 289.8 128.6 294.8 130.3 297.3 134.6 C 298.5 136.6 298.1 139.6 296.1 141 C 293 143.1 289.1 142.5 285.6 142.2 C 281.7 140.6 276.6 137.9 276.6 133 L 276.6 133 Z " fill="rgb(255,255,255)"/><path d=" M 176 136.3 C 179.7 134.9 183.7 134.8 187.5 135.3 C 187.8 153 187.8 170.8 187.7 188.6 C 163 187.8 138.3 188.5 113.6 188.2 C 113.5 177.5 113.5 166.7 113.6 156 C 135.4 153.2 155.7 144.2 176 136.3 L 176 136.3 Z " fill="rgb(105,16,16)"/><path d=" M 189.8 135.7 C 196.6 137.8 201.4 143.3 207.6 146.4 C 219.9 153.7 235.3 156.6 249 151.7 C 254.4 149.9 259 146.5 263.5 143.3 C 263.8 147.6 261.2 151.7 263.1 155.9 C 263.5 166.4 263.2 176.8 263.2 187.2 C 238.8 187.3 214.3 187.2 189.8 187.2 C 189.7 170.1 189.7 152.9 189.8 135.7 L 189.8 135.7 Z " fill="rgb(178,67,4)"/><path d=" M 266.6 149.7 C 271.2 148.7 275.7 150.1 279.8 152 C 281.8 153.6 284.4 155.2 285 157.9 C 285.3 160.8 281.6 160.6 279.7 161.1 C 275.1 160.2 270 158.7 266.8 155.1 C 266.7 153.3 266.7 151.5 266.6 149.7 L 266.6 149.7 Z " fill="rgb(255,255,255)"/><path d=" M 265.2 151.9 C 265.8 152.5 265.8 152.5 265.2 151.9 L 265.2 151.9 Z " fill="rgb(145,130,106)"/><path d=" M 61.9 194 C 74.3 191.4 88 195 97 204.1 C 105.3 211.8 107.8 223.9 107.5 234.8 C 106.3 240.6 104.1 246.8 99.4 250.6 C 102.1 242.7 104.8 234.1 102.2 225.8 C 104.2 235.7 101.6 246 96.1 254.4 C 94.5 256.6 92.3 258.3 90.4 260.2 C 89.4 260.2 88.4 260.2 87.4 260.4 L 86.8 260.7 L 86.3 261.1 C 77.6 264.2 67.9 265.1 58.9 262.4 C 47.8 259.3 38.6 250.6 34.7 239.9 L 34.6 239.7 L 34.5 239.5 L 34.5 239.2 C 34.2 237.5 33.6 235.7 32.9 234.1 C 32.2 222.7 39.6 212.4 48.9 206.5 C 61.6 198.6 79 199.6 90.7 209 C 95.4 212.3 98.1 217.4 101.1 222.1 C 94.1 203.7 70.2 195.6 52.8 203.9 C 43.5 207.7 36.7 216 33.2 225.1 C 33.9 209.7 47.2 197 61.9 194 L 61.9 194 Z " fill="rgb(178,67,4)"/><path d=" M 201.8 205.9 C 209.1 197.8 220 192.8 231 193.2 C 243.3 193.2 255.5 199.6 262.2 209.9 C 266.7 217.1 267.8 225.7 268 234.1 C 267 241.3 263.2 248 258.1 253.1 C 257 254.1 255.9 255.5 254.3 255.5 C 255.8 253.4 257.1 251.3 258.1 248.9 C 254.9 254.3 250.5 259.1 245 262.3 C 242.7 262.4 240.4 262.8 238.2 263.3 C 225.8 265.7 212.1 262.1 203.2 252.8 C 195.8 245.5 192.3 234.8 193.3 224.4 C 195.5 216.6 201.6 210.5 208.2 206.2 C 219.3 199.6 233.7 199.4 244.9 205.8 C 248.5 207.8 251.3 210.8 254.7 213.1 C 248.2 205.8 238.8 201.3 229 200.7 C 219.1 200.1 208.7 203.5 201.6 210.6 C 199.6 212.6 197.9 214.7 196.1 216.8 C 196.2 212.5 199.2 209.1 201.8 205.9 L 201.8 205.9 Z " fill="rgb(241,206,112)"/><path d=" M 287.5 199.5 C 296.2 193.3 307.5 191.3 317.8 193.7 C 326.9 195.5 335.1 201 340.5 208.5 C 344 214.1 346.2 220.5 346.4 227 C 348.3 236.1 344.1 245.5 337.6 251.7 L 337.9 250.9 C 340.6 244.6 343.2 237.9 342.6 230.9 C 342.3 227.7 341.4 224.6 340.3 221.6 C 340.4 222.4 340.7 224.1 340.9 224.9 C 336.3 227.3 331.1 227.5 326.5 229.7 C 326.3 227.8 326.1 225.9 325.8 224 C 330.7 223.2 335.5 222.5 340.2 221 C 338.7 217.9 337.1 214.7 334.6 212.3 C 336.3 215 338 217.6 339.4 220.5 C 334.4 220.5 329.5 221.8 324.5 221.6 C 323.7 221 322.8 220.5 321.9 220 C 311.6 218.6 301.1 219.4 290.7 219.7 C 298.9 215.2 308.4 217.3 317.2 215.8 C 310.3 215.5 303.4 216.2 296.5 215.7 C 292.6 217.4 287.9 218.5 285.5 222.4 C 284 225.7 283.4 229.4 283.4 233 C 283.6 238.3 282.6 243.8 285.1 248.7 C 294.6 249.4 304 250.9 313.5 251.2 C 317.6 250.6 321.4 248.8 325.2 247.1 C 325.8 247.8 326.5 248.4 327.1 249.1 C 329.4 247.9 330.8 245.9 330.4 243.2 C 329.4 244.4 328.5 245.6 327.6 246.8 C 327.3 246.1 326.8 244.7 326.5 244 C 327 242.6 327.6 241.3 328.8 240.4 C 328.6 239.6 328.3 238.8 328.1 238 L 328.9 238.2 C 329.8 238.6 330.8 239.1 331.8 239.6 C 330.8 238.5 330.4 236.2 328.5 236.4 C 324.8 237.6 323.4 241.5 323.3 245 C 323.5 247 321.3 247.3 319.9 247.9 C 316.4 249.1 312.6 249.7 308.9 248.9 C 301.6 247.5 294.1 247.7 286.7 246.6 C 286.4 245.3 286.2 244.1 286 242.8 C 286.6 243.1 287.7 243.7 288.3 244 C 289.2 243.7 290.1 243.4 291.1 243.1 C 291.6 242.2 292 241.2 292.5 240.2 C 291 238.6 289.2 237.3 286.8 237.6 C 288 238.8 289.3 239.9 290.5 241.1 C 289 241.3 287.6 241.3 286.1 241.1 C 285.7 238.8 285.4 236.5 285.1 234.2 L 286.9 234.1 C 286.4 233.5 285.9 232.9 285.4 232.3 C 285.9 229 286.5 225.7 287.2 222.4 C 295.9 219.5 305.1 222 314 221.5 C 316.7 221.7 319.8 221.3 322.1 222.9 C 323 225.5 322.8 228.4 323.1 231.1 C 314.1 235.4 303.9 232.8 294.3 233.3 C 299.2 234.2 304.2 234 309.1 235.1 C 312.4 234.7 315.8 234.6 319.1 233.9 C 322.9 233.1 326.1 230.9 329.8 229.8 C 332.9 228.9 335.9 227.8 338.6 226.1 L 339.4 227 C 340 226.4 340.6 225.9 341.3 225.4 C 344.3 236.3 340.2 248 332.9 256.3 L 332.6 256.7 L 332.2 257 C 330.6 258.1 329.1 259.3 327.6 260.6 L 326.4 259.3 L 326.3 260 C 312.6 266.3 294 264.3 282.9 253.1 C 278.3 248.8 274.8 243.2 273.3 237 C 273 235.7 272.7 234.3 272.3 233 C 271.7 222.6 278.2 213.1 286.4 207.2 C 292.1 202.9 299.4 201.4 306.3 200.3 C 291 200 276.4 211.1 272.4 225.9 C 272.4 215.3 278.9 205.3 287.5 199.5 L 287.5 199.5 Z " fill="rgb(255,171,0)"/><path d=" M 114.2 222.9 C 117.4 207 133.1 195.6 149 195.2 C 161.2 194.6 173.5 200.3 180.9 210 C 186.5 217.8 188.1 227.7 187.8 237.1 C 186.3 245.5 181.4 253.2 174.4 258.1 C 180.9 249.7 184.7 238.5 181.8 228 C 179.5 218 171.7 209.9 162.5 205.8 C 152.4 201.5 140.2 201.4 130.6 206.9 C 138 204.1 146 202.1 154 203.7 C 166.3 205.9 177.6 214.9 181.2 227.1 C 183.3 233.3 182.3 240.1 180.5 246.3 C 179 251.6 175.2 255.6 172.1 260.1 C 169.7 261.2 167.7 262.9 165.5 264.3 C 157.7 265.3 149.7 267.2 141.9 265.1 C 125.1 261.9 112 245.7 113.1 228.6 C 114.3 223.6 116.8 219 120.4 215.3 C 123.1 211.9 127 209.8 130.2 206.8 C 123.3 210.3 118.2 216.4 114.2 222.9 L 114.2 222.9 Z " fill="rgb(255,171,0)"/><path d=" M 52.8 203.9 C 70.2 195.6 94.1 203.7 101.1 222.1 C 98.1 217.4 95.4 212.3 90.7 209 C 79 199.6 61.6 198.6 48.9 206.5 C 39.6 212.4 32.2 222.7 32.9 234.1 C 32.6 235.7 32.5 237.3 32.6 238.9 C 33.1 239.1 34 239.3 34.5 239.5 L 34.6 239.7 C 34.3 239.7 33.7 239.7 33.5 239.8 C 35.9 257.1 54.3 268.9 71.1 267 C 76.2 266.5 81.2 265 85.7 262.5 C 85.9 262.1 86.2 261.4 86.3 261.1 L 86.8 260.7 L 87.4 260.4 C 88.4 260.2 89.4 260.2 90.4 260.2 C 83.6 265.1 75.4 267.7 67 267.8 C 57.4 267.2 47.6 263.6 41 256.2 C 36.1 251.4 34 244.6 32.1 238.1 C 32.5 233.8 32.3 229.4 33.2 225.1 C 36.7 216 43.5 207.7 52.8 203.9 L 52.8 203.9 Z " fill="rgb(0,0,0)"/><path d=" M 201.6 210.6 C 208.7 203.5 219.1 200.1 229 200.7 C 238.8 201.3 248.2 205.8 254.7 213.1 C 251.3 210.8 248.5 207.8 244.9 205.8 C 233.7 199.4 219.3 199.6 208.2 206.2 C 201.6 210.5 195.5 216.6 193.3 224.4 C 190.8 230.8 191.8 237.7 192.7 244.2 C 189.7 235.1 191.4 225 196.1 216.8 C 197.9 214.7 199.6 212.6 201.6 210.6 L 201.6 210.6 Z " fill="rgb(0,0,0)"/><path d=" M 272.4 225.9 C 276.4 211.1 291 200 306.3 200.3 C 299.4 201.4 292.1 202.9 286.4 207.2 C 278.2 213.1 271.7 222.6 272.3 233 L 271.5 232.3 C 271.6 231.3 271.8 230.2 271.9 229.1 C 272 228.1 272.1 227 272.4 225.9 L 272.4 225.9 Z " fill="rgb(0,0,0)"/><path d=" M 306.8 200.4 C 316 199.9 325.8 203.5 332.2 210.2 C 326.6 205.5 320 202.4 312.9 200.9 C 310.8 200.8 308.8 200.9 306.8 200.4 L 306.8 200.4 Z " fill="rgb(0,0,0)"/><path d=" M 130.6 206.9 C 140.2 201.4 152.4 201.5 162.5 205.8 C 171.7 209.9 179.5 218 181.8 228 C 184.7 238.5 180.9 249.7 174.4 258.1 C 173.6 258.7 172.8 259.4 172.1 260.1 C 175.2 255.6 179 251.6 180.5 246.3 C 182.3 240.1 183.3 233.3 181.2 227.1 C 177.6 214.9 166.3 205.9 154 203.7 C 146 202.1 138 204.1 130.6 206.9 L 130.6 206.9 Z " fill="rgb(0,0,0)"/><path d=" M 222 206.1 C 225.8 204.5 227.5 210.7 224.5 212.5 C 227.3 214.4 227 217.8 226.2 220.7 C 226.8 220.4 228.1 219.8 228.7 219.5 L 228.1 218.8 C 229.1 218.6 231 218.1 232 217.8 C 230.1 216.8 228.8 214.7 229.7 212.5 C 230.9 210.9 232.9 210 234.8 209.4 C 238 210.9 238.1 215.7 235.2 217.6 C 236.8 218.6 238.8 220.1 238.2 222.3 C 237.6 226 237.1 229.8 236.2 233.4 C 236.1 234.5 236.1 235.6 236.1 236.6 C 240.5 236.1 237.4 230.4 239.9 228 C 240.9 226.4 243 227.1 244.6 226.8 L 244.7 226.2 C 241.3 226.6 239.8 222.1 242 220 C 243.5 219 245.2 218.4 246.9 217.5 C 250.2 219.6 250.3 224.4 247.1 226.7 C 249.1 227.4 251.2 229.5 250.4 231.8 C 249.4 236.1 249.4 240.6 248.1 244.9 C 244.8 245 241.6 245 238.4 244.8 C 238.1 247.5 238.2 250.3 237.6 253.1 C 237 255.4 234.7 256.7 232.9 258 C 230.2 254.6 232.9 249.7 232.8 245.8 C 229.7 247.8 227.1 251.7 222.9 251 C 221.6 250.9 219.2 251.2 220.1 249.1 C 220.9 248.2 221.7 247.4 222.6 246.6 C 218.8 244.4 222.2 239 221.8 235.6 C 218.8 237.9 215.7 241.3 211.5 240.2 C 208.7 240.5 210.5 237.3 211.8 236.6 C 212.1 234 212.3 231.4 212.5 228.8 C 209.5 231.1 205.8 234 202 231.5 C 205.5 227.6 209.5 224.1 213.1 220.2 C 214.4 220.3 215.8 220.4 217.2 220.5 C 217.4 217.8 216.9 212.5 221.3 213.1 C 220.1 212 219.4 210.6 219 209.1 C 219.7 208.3 220.4 207.5 221.2 206.8 C 219.7 208.7 220 210.9 221.7 212.5 C 222.9 211.8 225.2 211.8 225.3 210 C 225.4 208 223.2 207.3 222 206.1 L 222 206.1 Z " fill="rgb(0,0,0)"/><path d=" M 68.6 211.9 C 69.9 207.4 75 206.7 78.9 206.5 C 82.7 205.9 84.5 210.7 83.3 213.7 C 85.6 215.5 85.1 218.3 83.1 220 C 83.7 221.7 84.5 223.7 83.3 225.3 C 82 226.7 80.5 227.8 79 229 C 80 230.4 80.7 232 80.9 233.7 C 78.4 235.3 75.7 236.8 73 238 C 73.4 239.4 74.7 241 73.3 242.4 C 71.6 245 68.3 244.5 65.6 244.3 C 65.5 245.9 66.7 247.9 65.1 249.1 C 62.5 250.9 59.1 251.3 56 252 C 54.9 254.1 56.1 258.8 52.6 258.4 C 53.1 257.3 53.6 256.2 54.1 255.2 C 54.2 253.7 54.4 252.3 54.7 250.8 C 58 250.2 61.8 250.4 64.4 248 C 64.6 246.5 63.8 245 64.4 243.7 C 66.9 243 69.5 242.7 72 242 C 71.3 240.4 70.7 238.9 70.1 237.3 C 72.9 236 76.2 235.3 78.6 233.1 C 77.7 231.7 74.9 230.3 76.4 228.4 C 78.1 226.6 80.2 225.3 82.1 223.8 C 81.4 222.9 80.7 222 80.2 221 C 80.4 219.4 82.1 218.5 82.8 217 C 80 215.1 81.1 211.6 80 208.9 C 78.1 209.2 76.4 209.8 74.8 210.8 C 74.1 210.7 72.7 210.5 72 210.4 C 71.4 212 70.7 213.7 70 215.3 C 68.1 215.5 66.5 214.4 65 213.3 C 63.5 215.9 63.3 219.9 60.2 221.2 C 59.1 220.6 58.1 219.9 57 219.3 C 56.4 222.4 56.5 225.7 55.8 228.8 C 55.1 230.7 52.7 229.6 51.2 230.2 C 50.8 233.3 54.1 235.7 53.3 238.8 C 52.5 238.9 50.9 239.2 50.1 239.4 C 50.4 242 52.6 243.7 53.3 246.1 C 49.3 245.9 46.4 241 48.5 237.6 C 49.1 237.4 50.2 236.9 50.8 236.7 C 49 234 48 230.6 49.9 227.7 C 51.2 227.7 52.5 227.7 53.9 227.7 C 53.4 223.7 53.2 217.5 57.9 216.3 C 58.8 216.8 59.6 217.4 60.4 218 C 61.4 215.8 62 213.4 63.8 211.8 C 65.1 210.2 67 211.6 68.6 211.9 L 68.6 211.9 Z " fill="rgb(0,0,0)"/><path d=" M 114.2 222.9 C 118.2 216.4 123.3 210.3 130.2 206.8 C 127 209.8 123.1 211.9 120.4 215.3 C 116.8 219 114.3 223.6 113.1 228.6 C 113.3 226.6 113.7 224.8 114.2 222.9 L 114.2 222.9 Z " fill="rgb(0,0,0)"/><path d=" M 230.6 214.8 C 229.3 212.6 232 211 233.6 210.2 C 234.5 211.6 237.5 212.9 236.2 214.9 C 235.4 217.4 231.3 217.4 230.6 214.8 L 230.6 214.8 Z " fill="rgb(241,206,112)"/><path d=" M 333.3 211.1 C 333.8 211.7 333.8 211.7 333.3 211.1 L 333.3 211.1 Z " fill="rgb(105,16,16)"/><path d=" M 218.6 221.9 C 218.9 218.3 219.7 213.9 223.8 212.9 C 226.4 214.3 226.6 217.2 226.1 219.9 L 225.2 219.5 C 225.4 222.1 225.7 225 224.2 227.3 C 221.7 226.9 219.3 226.5 216.8 226.6 C 215.6 228.8 216 231.6 215.7 234.1 C 214.8 234.9 213.9 235.7 213 236.5 C 213.1 233.2 213.6 229.8 214.1 226.5 C 210.1 226.8 208.4 232.6 203.8 231.3 C 206.9 227.8 210.3 224.4 213.9 221.5 C 215.4 221.7 217 222 218.6 221.9 L 218.6 221.9 Z " fill="rgb(241,206,112)"/><path d=" M 334.6 212.3 C 337.1 214.7 338.7 217.9 340.2 221 C 335.5 222.5 330.7 223.2 325.8 224 C 326.1 225.9 326.3 227.8 326.5 229.7 C 331.1 227.5 336.3 227.3 340.9 224.9 C 340.7 224.1 340.4 222.4 340.3 221.6 C 341.4 224.6 342.3 227.7 342.6 230.9 C 343.2 237.9 340.6 244.6 337.9 250.9 C 336.7 253.1 334.7 254.6 332.9 256.3 C 340.2 248 344.3 236.3 341.3 225.4 C 340.6 225.9 340 226.4 339.4 227 L 338.6 226.1 C 335.9 227.8 332.9 228.9 329.8 229.8 C 326.1 230.9 322.9 233.1 319.1 233.9 C 315.8 234.6 312.4 234.7 309.1 235.1 C 304.2 234 299.2 234.2 294.3 233.3 C 303.9 232.8 314.1 235.4 323.1 231.1 C 322.8 228.4 323 225.5 322.1 222.9 C 319.8 221.3 316.7 221.7 314 221.5 C 305.1 222 295.9 219.5 287.2 222.4 C 286.5 225.7 285.9 229 285.4 232.3 C 285.9 232.9 286.4 233.5 286.9 234.1 L 285.1 234.2 C 285.4 236.5 285.7 238.8 286.1 241.1 C 287.6 241.3 289 241.3 290.5 241.1 C 289.3 239.9 288 238.8 286.8 237.6 C 289.2 237.3 291 238.6 292.5 240.2 C 292 241.2 291.6 242.2 291.1 243.1 C 290.1 243.4 289.2 243.7 288.3 244 C 287.7 243.7 286.6 243.1 286 242.8 C 286.2 244.1 286.4 245.3 286.7 246.6 C 294.1 247.7 301.6 247.5 308.9 248.9 C 312.6 249.7 316.4 249.1 319.9 247.9 C 321.3 247.3 323.5 247 323.3 245 C 323.4 241.5 324.8 237.6 328.5 236.4 C 330.4 236.2 330.8 238.5 331.8 239.6 C 330.8 239.1 329.8 238.6 328.9 238.2 L 328.1 238 C 328.3 238.8 328.6 239.6 328.8 240.4 C 327.6 241.3 327 242.6 326.5 244 C 326.8 244.7 327.3 246.1 327.6 246.8 C 328.5 245.6 329.4 244.4 330.4 243.2 C 330.8 245.9 329.4 247.9 327.1 249.1 C 326.5 248.4 325.8 247.8 325.2 247.1 C 321.4 248.8 317.6 250.6 313.5 251.2 C 304 250.9 294.6 249.4 285.1 248.7 C 282.6 243.8 283.6 238.3 283.4 233 C 283.4 229.4 284 225.7 285.5 222.4 C 287.9 218.5 292.6 217.4 296.5 215.7 C 303.4 216.2 310.3 215.5 317.2 215.8 C 308.4 217.3 298.9 215.2 290.7 219.7 C 301.1 219.4 311.6 218.6 321.9 220 C 322.8 220.5 323.7 221 324.5 221.6 C 329.5 221.8 334.4 220.5 339.4 220.5 C 338 217.6 336.3 215 334.6 212.3 L 334.6 212.3 Z " fill="rgb(0,0,0)"/><path d=" M 255 214 C 256.3 213.6 257.5 215.7 256.7 216.7 C 255.5 217 254.5 215.1 255 214 L 255 214 Z " fill="rgb(0,0,0)"/><path d=" M 320.2 215.1 C 323.2 213.5 320.4 218.4 320.2 215.1 L 320.2 215.1 Z " fill="rgb(178,67,4)"/><path d=" M 323.2 215.1 C 326.3 213.6 323.4 218.3 323.2 215.1 L 323.2 215.1 Z " fill="rgb(178,67,4)"/><path d=" M 327.2 215.1 C 330.3 213.6 327.3 218.4 327.2 215.1 L 327.2 215.1 Z " fill="rgb(178,67,4)"/><path d=" M 230.2 220.3 C 232 219.6 233.6 217.2 235.6 218.6 C 236.8 219.2 238.1 220.5 237.7 222 C 237.2 226.2 236.5 230.3 235.4 234.4 C 232.3 233.9 229.2 233.4 226 233.7 C 225.8 235.9 226.1 238.2 224.6 240 C 225.1 240.1 226.2 240.4 226.7 240.5 C 226.8 238.5 226.9 236.5 227 234.6 C 228.5 234.6 230.1 234.6 231.6 234.6 C 232.3 235 232.9 235.5 233.6 235.9 C 231.4 237.4 229.9 239.7 227.5 241 C 228 241.5 228.5 242 229 242.5 C 230.2 240.3 232.3 238.7 234.3 237.3 C 236.2 237.2 238.7 239 240.1 237.1 C 240.7 234.7 240.9 232.1 241.8 229.8 C 243 228.7 244.3 227.8 245.5 226.7 C 247.8 227.2 249.6 228.5 250.3 230.8 C 248.9 235 249 239.5 247.7 243.8 C 244.5 245.1 240.8 243.2 237.3 243.9 C 237.1 246.9 236.7 250 236.5 253.1 C 235.3 254.2 234.2 255.2 233 256.3 C 232.6 251.9 235 247.4 233.7 243.2 C 229.4 245.4 226.6 251.2 221 249.6 C 223.2 247.4 225.5 245.2 227.8 243 C 226.9 242.8 226.1 242.5 225.2 242.3 C 224.2 243.3 223.1 244.3 222 245.3 C 222.2 241.3 222.7 237.5 223.4 233.6 C 218.6 233.6 216.7 241 211.2 238.9 C 212.7 237.5 215 237 216.1 235.1 C 217.8 232.2 220.2 229.7 223 227.8 C 224.9 227.8 226.7 228.3 228.6 227.9 C 229 225.4 229.5 222.8 230.2 220.3 L 230.2 220.3 Z " fill="rgb(241,206,112)"/><path d=" M 258.1 218.2 C 259.5 218.2 260.4 220.6 259.8 221.8 C 258.3 221.9 257.5 219.4 258.1 218.2 L 258.1 218.2 Z " fill="rgb(145,130,106)"/><path d=" M 242 222 C 241.7 220.2 244 219.8 245 218.8 C 246.7 219.7 250 221.5 248.2 223.9 C 246.7 226.9 241.4 225.4 242 222 L 242 222 Z " fill="rgb(241,206,112)"/><path d=" M 225.7 227.2 C 225.8 224.7 225 220.9 228.4 220.3 C 226.4 222.2 228.1 225.8 225.7 227.2 L 225.7 227.2 Z " fill="rgb(241,206,112)"/><path d=" M 101.1 223.2 C 104.4 223.4 99.5 226.2 101.1 223.2 L 101.1 223.2 Z " fill="rgb(105,16,16)"/><path d=" M 260.7 225.8 C 260.3 224.7 260.2 223.7 260.4 222.7 C 263 230.6 262.8 239.6 259.1 247.2 C 261.1 240.3 263 232.8 260.7 225.8 L 260.7 225.8 Z " fill="rgb(0,0,0)"/><path d=" M 102.2 225.8 C 104.8 234.1 102.1 242.7 99.4 250.6 C 98.8 252.2 97.3 253.2 96.1 254.4 C 101.6 246 104.2 235.7 102.2 225.8 L 102.2 225.8 Z " fill="rgb(0,0,0)"/><path d=" M 217.5 228.1 C 218.2 226.7 220.8 227.7 219.5 229.1 C 218.9 230.2 218.1 230.7 217.2 230.7 C 217.3 230 217.5 228.7 217.5 228.1 L 217.5 228.1 Z " fill="rgb(241,206,112)"/><path d=" M 271.4 238 C 270.9 235 271.2 232.1 271.9 229.1 C 271.8 230.2 271.6 231.3 271.5 232.3 L 272.3 233 C 272.7 234.3 273 235.7 273.3 237 L 272.9 237.8 L 271.4 238 L 271.4 238 Z " fill="rgb(241,206,112)"/><path d=" M 112.6 228.7 C 112.2 235.2 111.7 242.1 114.7 248.3 C 118.3 257.6 126.7 264.3 136 267.6 L 137.6 266.3 C 137.2 266.9 136.5 268.1 136.1 268.7 C 138.2 268.6 140.4 268.6 142.6 268.9 L 141.4 269 L 136.2 269 C 133.7 266.6 130 266 127.2 263.9 C 115.6 256.8 109.2 241.9 112.6 228.7 L 112.6 228.7 Z " fill="rgb(0,0,0)"/><path d=" M 288.3 233.1 C 291.4 231.6 288.4 236.4 288.3 233.1 L 288.3 233.1 Z " fill="rgb(178,67,4)"/><path d=" M 291.3 233.3 C 291.7 233.9 291.7 233.9 291.3 233.3 L 291.3 233.3 Z " fill="rgb(178,67,4)"/><path d=" M 32.9 234.1 C 33.6 235.7 34.2 237.5 34.5 239.2 L 34.5 239.5 C 34 239.3 33.1 239.1 32.6 238.9 C 32.5 237.3 32.6 235.7 32.9 234.1 L 32.9 234.1 Z " fill="rgb(255,255,255)"/><path d=" M 272.9 237.8 L 273.3 237 C 272.7 238.6 272.6 240.2 273.1 241.8 C 276.2 253.7 286.6 262.9 298.4 265.7 C 304.9 267 311.7 267 318.1 265 C 320.7 264.2 323.1 262.6 325.9 262.2 C 316.3 267.5 304.5 268.7 294.1 264.9 C 284.6 261.4 276.4 253.7 273.3 243.9 C 272.8 242 271.5 239.7 272.9 237.8 L 272.9 237.8 Z " fill="rgb(0,0,0)"/><path d=" M 332.1 241.1 C 334.1 239.9 336.1 238.8 338.2 238 C 335.9 239.6 333.4 242.9 330.4 241.4 C 331 240.7 331.6 240 332.2 239.4 L 332.1 241.1 L 332.1 241.1 Z " fill="rgb(0,0,0)"/><path d=" M 308.3 238.8 C 310.8 237.9 313.7 240.9 312.2 243.3 C 311.8 244.6 310 244.6 309 245.4 C 307.8 244.2 306.6 243.1 305.4 242 C 306 241.1 306.6 240.1 307.2 239.2 C 306.5 241.4 307.6 242.5 309.6 242.8 C 309.9 242.4 310.5 241.7 310.8 241.4 C 309.8 240.7 308.9 239.8 308.3 238.8 L 308.3 238.8 Z " fill="rgb(0,0,0)"/><path d=" M 33.5 239.8 C 33.7 239.7 34.3 239.7 34.6 239.7 L 34.7 239.9 C 38.6 250.6 47.8 259.3 58.9 262.4 C 67.9 265.1 77.6 264.2 86.3 261.1 C 86.2 261.4 85.9 262.1 85.7 262.5 C 81.2 265 76.2 266.5 71.1 267 C 54.3 268.9 35.9 257.1 33.5 239.8 L 33.5 239.8 Z " fill="rgb(255,255,255)"/><path d=" M 326.3 240.2 C 326.8 240.8 326.8 240.8 326.3 240.2 L 326.3 240.2 Z " fill="rgb(178,67,4)"/><path d=" M 193.1 244.9 C 194.4 246.4 194.9 248.3 195.9 250 C 200.8 258.4 209.5 264.4 219 266.3 C 227.7 268.6 237.2 266.6 245 262.3 C 250.5 259.1 254.9 254.3 258.1 248.9 C 257.1 251.3 255.8 253.4 254.3 255.5 C 248.6 261.5 241.1 265.8 232.9 267.1 C 216.8 270.2 198.4 260.9 193.1 244.9 L 193.1 244.9 Z " fill="rgb(0,0,0)"/><path d=" M 123.9 248.2 C 123.1 247.6 120.8 246 123.2 245.7 C 133 249.9 142.7 254.7 152.4 259.2 C 150 260.4 147.5 261.4 145 262.5 C 138.8 256.7 131 252.8 123.9 248.2 L 123.9 248.2 Z " fill="rgb(255,171,0)"/><path d=" M 327.6 260.6 C 329.1 259.3 330.6 258.1 332.2 257 C 330.5 259 328.3 260.5 326.2 262.1 C 326.2 261.6 326.3 260.5 326.3 260 L 326.4 259.3 L 327.6 260.6 L 327.6 260.6 Z " fill="rgb(0,0,0)"/><path d=" M 165.5 264.3 C 167.7 262.9 169.7 261.2 172.1 260.1 C 168.1 264.3 162.4 265.8 157.8 269 L 153.5 269 L 152.5 268.6 C 154.3 268.6 156 268.5 157.8 268.6 C 157.5 268.1 157 267.2 156.7 266.8 C 159.6 268.4 162.8 265.3 165.5 264.3 L 165.5 264.3 Z " fill="rgb(0,0,0)"/><g><path d=" M 164.44 218.48 C 163.23 218.09 161.89 217.92 160.61 217.92 C 155.82 217.92 151.03 218.1 146.25 218.06 C 140.28 218.02 134.31 217.81 128.34 217.71 C 125.6 217.66 124.71 218.41 124.72 220.78 C 124.74 226.66 124.78 232.55 124.87 238.43 C 124.91 241.04 125.88 241.89 128.51 241.8 C 129.08 241.78 129.64 241.67 130.21 241.66 C 134.32 241.65 138.44 241.65 142.55 241.65 C 142.37 243.03 142.2 244.31 142 245.83 C 139.67 245.83 137.32 245.78 134.98 245.87 C 134.46 245.89 133.95 246.4 133.44 246.69 C 133.97 247.01 134.49 247.59 135.03 247.6 C 138.64 247.67 142.26 247.69 145.88 247.58 C 147.51 247.53 149.14 247.45 150.76 247.36 C 150.71 247.11 150.71 246.87 150.73 246.61 C 150.75 246.39 150.82 246.21 150.92 246.05 C 150.2 245.99 149.48 245.94 148.76 245.88 L 148.76 241.55 C 149.28 241.55 149.76 241.56 150.24 241.55 C 150.6 241.54 150.96 241.54 151.33 241.53 C 151.18 241.03 151.24 240.49 151.37 239.95 C 151.37 239.92 151.37 239.9 151.37 239.87 C 146.96 239.87 142.56 239.87 138.16 239.88 C 134.92 239.89 131.67 239.92 128.43 240.01 C 127.32 240.04 126.72 239.7 126.73 238.53 C 126.77 234.35 126.84 230.17 126.82 225.99 C 126.81 223.93 126.64 221.87 126.54 219.62 C 127.34 219.56 127.94 219.47 128.54 219.47 C 136.87 219.42 145.19 219.37 153.52 219.35 C 156.84 219.34 160.16 219.36 163.48 219.46 C 163.87 219.47 164.58 220.03 164.58 220.34 C 164.6 222.6 164.61 224.85 164.62 227.09 C 164.86 227.1 165.1 227.16 165.31 227.27 C 165.41 224.9 165.55 222.54 165.56 220.17 C 165.57 219.58 164.96 218.65 164.44 218.48 Z  M 147.05 241.61 C 146.9 243 146.9 244.35 146.51 245.56 C 146.42 245.82 144.31 245.91 144.14 245.57 C 143.56 244.43 143.44 243.06 143.11 241.61 L 147.05 241.61 Z " fill="rgb(0,0,0)"/></g><g><path d=" M 151.1 251.2 C 151.1 251.2 151 251.5 151.01 251 L 150.97 250.6 L 150.87 250.3 L 150.9 250.01 C 150.9 250.01 151.16 249.93 154.09 249.76 C 155 249.64 155.92 249.59 156.84 249.59 C 156.84 249.59 168.31 249.68 169.17 249.85 C 169.17 249.85 161.98 249.6 161.53 249.68 C 161.53 249.68 168.4 249.89 168.93 250.05 C 168.93 250.05 162.26 249.81 161.67 250.02 C 161.67 250.02 167.81 250.24 168.55 250.44 C 168.55 250.44 167.37 250.36 167.06 250.38 L 167.61 250.44 L 166.73 250.43 L 166.22 250.38 C 166.22 250.38 167.6 250.52 167.7 250.59 C 167.7 250.59 168.33 250.5 165.83 250.54 C 165.82 250.54 159.92 250.04 151.1 251.2 Z " fill="rgb(0,0,0)"/><path d=" M 150.75 257.16 C 150.75 257.16 150.65 257.66 150.66 256.82 L 150.62 256.15 L 150.52 255.66 L 150.55 255.17 C 150.55 255.17 150.81 255.03 153.75 254.75 C 154.66 254.56 155.58 254.47 156.51 254.47 C 156.51 254.47 167.99 254.61 168.85 254.91 C 168.85 254.91 161.65 254.49 161.2 254.62 C 161.2 254.62 168.08 254.96 168.61 255.23 C 168.61 255.23 161.93 254.84 161.34 255.18 C 161.34 255.18 167.49 255.54 168.23 255.88 C 168.23 255.88 167.05 255.75 166.73 255.79 L 167.28 255.89 L 166.39 255.88 L 165.88 255.8 C 165.88 255.8 167.27 256.03 167.36 256.15 C 167.36 256.15 167.99 256.01 165.49 256.06 C 165.5 256.06 159.58 255.24 150.75 257.16 Z " fill="rgb(0,0,0)"/><path d=" M 149.33 228.59 C 149.33 228.59 149.22 229.09 149.23 228.25 L 149.19 227.58 L 149.08 227.09 L 149.11 226.6 C 149.11 226.6 149.39 226.46 152.54 226.18 C 153.51 225.99 154.51 225.9 155.5 225.9 C 155.5 225.9 167.81 226.04 168.74 226.34 C 168.74 226.34 161.02 225.92 160.53 226.05 C 160.53 226.05 167.91 226.39 168.48 226.66 C 168.48 226.66 161.32 226.27 160.68 226.61 C 160.68 226.61 167.27 226.97 168.07 227.31 C 168.07 227.31 166.8 227.18 166.47 227.22 L 167.06 227.32 L 166.11 227.31 L 165.56 227.23 C 165.56 227.23 167.05 227.46 167.15 227.58 C 167.15 227.58 167.82 227.44 165.15 227.49 C 165.15 227.49 158.8 226.67 149.33 228.59 Z " fill="rgb(0,0,0)"/><path d=" M 149.1 228.58 C 149.1 228.58 148.57 228.43 149.46 228.44 L 150.17 228.38 L 150.69 228.23 L 151.21 228.27 C 151.21 228.27 151.36 228.66 151.65 232.97 C 151.65 232.97 151.95 234.7 151.95 237.03 C 151.95 237.03 151.8 253.92 151.48 255.19 C 151.48 255.19 151.93 244.6 151.79 243.93 C 151.79 243.93 151.42 254.06 151.14 254.83 C 151.14 254.83 151.56 245.01 151.2 244.13 C 151.2 244.13 150.81 253.17 150.45 254.27 C 150.45 254.27 150.59 252.54 150.55 252.07 L 150.44 252.88 L 150.45 251.58 L 150.53 250.83 C 150.53 250.83 150.28 252.87 150.16 253.01 C 150.16 253.01 150.31 253.94 150.26 250.26 C 150.27 250.27 151.14 241.57 149.1 228.58 Z " fill="rgb(0,0,0)"/><path d=" M 166.57 227.76 C 166.57 227.76 166.04 227.61 166.93 227.62 L 167.64 227.56 L 168.16 227.41 L 168.68 227.45 C 168.68 227.45 168.83 227.85 169.12 232.25 C 169.12 232.25 169.42 234.01 169.42 236.39 C 169.42 236.39 169.27 253.64 168.95 254.93 C 168.95 254.93 169.4 244.12 169.26 243.43 C 169.26 243.43 168.89 253.77 168.61 254.57 C 168.61 254.57 169.03 244.54 168.67 243.64 C 168.67 243.64 168.28 252.87 167.92 253.99 C 167.92 253.99 168.06 252.22 168.02 251.74 L 167.91 252.57 L 167.92 251.24 L 168 250.47 C 168 250.47 167.75 252.55 167.63 252.7 C 167.63 252.7 167.78 253.65 167.73 249.89 C 167.73 249.91 168.61 241.03 166.57 227.76 Z " fill="rgb(0,0,0)"/><path d=" M 161.13 252.54 C 161.13 252.55 161.13 252.55 161.13 252.56 C 161.14 252.56 161.14 252.55 161.13 252.54 Z " fill="rgb(0,0,0)"/><path d=" M 161.07 253.37 C 161.06 253.39 161.04 253.42 161.01 253.46 C 161.05 253.42 161.07 253.39 161.07 253.37 C 161.09 253.37 161.13 253.3 161.07 253.37 Z " fill="rgb(255,255,255)"/><path d=" M 158.56 253.6 C 158.57 253.61 158.57 253.61 158.58 253.62 L 158.54 253.58 C 158.55 253.58 158.55 253.59 158.56 253.6 Z " fill="rgb(255,255,255)"/><path d=" M 160.32 253.91 C 160.33 253.91 160.34 253.9 160.35 253.9 L 160.37 253.89 C 160.39 253.88 160.41 253.86 160.44 253.84 C 160.52 253.79 160.59 253.72 160.66 253.66 C 160.61 253.7 160.56 253.74 160.51 253.78 C 160.44 253.82 160.38 253.87 160.32 253.91 Z " fill="none"/><path d=" M 161.18 252.87 C 161.16 252.93 161.14 253 161.12 253.06 C 161.15 253 161.17 252.93 161.18 252.87 Z " fill="none"/><path d=" M 161.08 252.45 C 161.08 252.08 160.94 251.73 160.69 251.46 C 160.59 251.34 160.47 251.24 160.34 251.16 C 160.24 251.09 160.13 251.03 160.01 250.99 C 159.95 250.97 159.88 250.96 159.81 250.96 C 159.83 250.97 159.85 250.97 159.87 250.98 C 159.87 250.98 159.96 250.97 159.9 251.05 C 159.89 251.08 159.89 251.1 159.88 251.13 C 159.89 251.16 159.89 251.18 159.89 251.21 L 159.84 251.24 C 159.84 251.25 159.82 251.25 159.59 251.17 C 159.42 251.12 159.24 251.12 159.07 251.17 C 158.76 251.25 158.48 251.44 158.28 251.69 C 158.22 251.79 158.17 251.9 158.14 252.01 C 158.04 252.36 158.03 252.72 158.13 253.07 C 158.15 253.13 158.17 253.19 158.19 253.25 C 158.32 253.45 158.49 253.63 158.68 253.76 C 158.81 253.85 158.96 253.92 159.11 253.96 C 159.19 253.98 159.26 253.99 159.34 253.99 C 159.03 253.93 158.75 253.78 158.52 253.57 C 158.38 253.43 158.26 253.27 158.18 253.09 C 158.27 253.27 158.4 253.43 158.54 253.57 C 158.55 253.58 158.55 253.58 158.56 253.59 C 158.57 253.6 158.57 253.6 158.58 253.61 C 158.61 253.63 158.62 253.65 158.65 253.68 C 158.88 253.85 159.14 253.97 159.43 254 C 159.49 254 159.55 254.01 159.61 254 C 159.98 253.98 160.36 253.85 160.63 253.56 C 160.64 253.55 160.65 253.53 160.67 253.52 C 160.94 253.23 161.08 252.84 161.08 252.45 Z " fill="none"/><path d=" M 158.21 253.29 C 158.21 253.3 158.22 253.31 158.22 253.32 C 158.3 253.52 158.44 253.68 158.62 253.79 C 158.7 253.84 158.79 253.88 158.88 253.9 C 158.74 253.83 158.61 253.74 158.49 253.63 C 158.38 253.54 158.29 253.42 158.21 253.29 Z " fill="none"/><path d=" M 161.19 252.82 C 161.19 252.83 161.19 252.84 161.19 252.84 C 161.19 252.84 161.19 252.83 161.19 252.82 Z " fill="none"/><path d=" M 161.07 253.37 C 161.06 253.39 161.04 253.42 161.01 253.46 C 161.05 253.42 161.07 253.39 161.07 253.37 C 161.09 253.37 161.13 253.3 161.07 253.37 Z " fill="none"/><path d=" M 159.61 250.97 C 159.61 250.97 159.62 250.97 159.63 250.97 L 159.61 250.97 Z " fill="none"/><path d=" M 158.8 250.98 C 159.11 250.84 159.47 250.82 159.79 250.95 C 159.93 250.95 160.06 250.99 160.18 251.05 C 160.37 251.16 160.55 251.29 160.7 251.45 C 160.87 251.64 160.98 251.86 161.04 252.1 C 161.14 252.57 161.03 253.06 160.74 253.44 C 160.72 253.47 160.7 253.49 160.67 253.51 C 160.66 253.52 160.66 253.52 160.65 253.53 C 160.64 253.54 160.64 253.54 160.63 253.55 C 160.49 253.7 160.33 253.82 160.15 253.91 C 160.33 253.83 160.5 253.71 160.63 253.57 C 160.94 253.24 161.11 252.8 161.09 252.35 C 161.08 252.11 161.01 251.87 160.88 251.66 C 160.76 251.47 160.61 251.3 160.43 251.17 C 160.3 251.06 160.14 250.98 159.98 250.93 C 159.9 250.91 159.81 250.9 159.72 250.9 C 159.92 250.88 160.11 250.94 160.28 251.05 C 160.6 251.23 160.97 251.6 161.08 252.08 C 161.18 252.54 161.09 253.02 160.82 253.4 C 160.76 253.49 160.68 253.58 160.6 253.66 C 160.61 253.65 160.63 253.64 160.64 253.63 C 160.72 253.56 160.8 253.47 160.86 253.38 C 161.04 253.11 161.15 252.79 161.15 252.46 C 161.16 252 160.97 251.56 160.64 251.25 C 160.35 250.97 160.05 250.84 159.93 250.82 C 160.06 250.85 160.17 250.89 160.28 250.96 C 160.39 251.03 160.49 251.1 160.58 251.18 C 160.54 251.14 160.49 251.1 160.44 251.06 C 160.59 251.16 160.72 251.28 160.83 251.42 C 160.89 251.5 160.95 251.59 160.99 251.68 C 160.93 251.55 160.85 251.44 160.76 251.33 C 160.68 251.24 160.59 251.15 160.5 251.08 C 160.46 251.05 160.43 251.03 160.41 251.02 C 160.33 250.97 160.41 251.02 160.41 251.02 C 160.41 251.02 160.45 251.05 160.49 251.09 C 160.53 251.12 160.59 251.16 160.65 251.22 C 160.85 251.4 161.01 251.63 161.11 251.89 C 161.17 252.08 161.2 252.27 161.2 252.46 C 161.24 252.21 161.2 251.96 161.1 251.73 C 160.97 251.43 160.75 251.17 160.48 250.98 C 160.21 250.8 159.9 250.74 159.62 250.73 C 159.34 250.72 159.06 250.77 158.8 250.87 C 158.55 250.97 158.33 251.13 158.17 251.34 C 158.11 251.43 158.05 251.52 158.01 251.62 C 158.01 251.61 158.02 251.6 158.02 251.59 C 158.24 251.32 158.5 251.11 158.8 250.98 Z " fill="none"/><path d=" M 160.72 253.7 C 160.61 253.81 160.49 253.91 160.35 253.99 C 160.24 254.05 160.12 254.1 160 254.14 C 160.13 254.11 160.21 254.08 160.21 254.09 C 160.46 253.99 160.69 253.83 160.87 253.63 C 160.93 253.56 160.97 253.51 161 253.47 C 160.92 253.56 160.84 253.65 160.75 253.73 C 160.64 253.82 160.53 253.9 160.4 253.96 C 160.49 253.91 160.58 253.86 160.66 253.8 C 160.8 253.69 160.92 253.56 161.02 253.41 C 160.98 253.46 160.94 253.5 160.9 253.55 C 160.98 253.45 161.05 253.35 161.12 253.25 C 161.19 253.14 161.24 253.02 161.26 252.9 C 161.24 253.01 161.11 253.31 160.84 253.6 C 160.8 253.63 160.76 253.66 160.72 253.7 Z " fill="none"/><path d=" M 160.61 253.67 C 160.57 253.71 160.53 253.74 160.5 253.77 C 160.55 253.73 160.6 253.7 160.65 253.65 C 160.67 253.63 160.68 253.62 160.7 253.61 C 160.76 253.54 160.82 253.47 160.87 253.39 C 160.8 253.48 160.73 253.56 160.65 253.64 C 160.64 253.65 160.62 253.66 160.61 253.67 Z " fill="rgb(0,0,0)"/><path d=" M 158.58 253.61 C 158.57 253.61 158.57 253.6 158.56 253.59 C 158.55 253.58 158.55 253.58 158.54 253.57 C 158.39 253.43 158.27 253.27 158.18 253.09 C 158.26 253.27 158.38 253.44 158.52 253.57 C 158.75 253.79 159.03 253.93 159.34 253.99 C 159.37 253.99 159.4 253.99 159.42 253.99 C 159.14 253.95 158.87 253.84 158.64 253.66 C 158.63 253.66 158.61 253.63 158.58 253.61 Z " fill="rgb(0,0,0)"/><path d=" M 150.87 250.44 L 150.87 255.18 L 168.13 255.18 L 168.13 250.44 L 150.87 250.44 Z  M 161.12 253.24 C 161.05 253.34 160.98 253.45 160.9 253.54 C 160.94 253.5 160.98 253.45 161.02 253.4 C 160.92 253.55 160.8 253.68 160.66 253.79 C 160.58 253.85 160.49 253.91 160.4 253.95 C 160.52 253.89 160.64 253.81 160.75 253.72 C 160.84 253.64 160.93 253.55 161 253.46 C 161.03 253.42 161.05 253.39 161.06 253.37 C 161.11 253.29 161.06 253.38 161.06 253.38 C 161.06 253.38 161.03 253.42 160.99 253.46 C 160.95 253.5 160.92 253.56 160.86 253.62 C 160.68 253.82 160.45 253.98 160.2 254.08 C 160.2 254.08 160.12 254.11 159.99 254.13 C 159.69 254.22 159.38 254.24 159.08 254.18 C 158.85 254.14 158.6 254.07 158.4 253.91 C 158.19 253.75 158.03 253.53 157.93 253.28 C 157.83 253.02 157.78 252.74 157.79 252.46 C 157.79 252.17 157.87 251.88 158.03 251.63 C 158.07 251.53 158.12 251.44 158.19 251.35 C 158.35 251.14 158.57 250.98 158.82 250.88 C 159.08 250.78 159.36 250.73 159.64 250.74 C 159.93 250.75 160.23 250.81 160.5 250.99 C 160.77 251.18 160.99 251.44 161.12 251.74 C 161.22 251.97 161.26 252.22 161.22 252.47 C 161.22 252.49 161.22 252.5 161.22 252.52 C 161.21 252.62 161.2 252.72 161.18 252.82 C 161.18 252.83 161.18 252.84 161.18 252.84 C 161.18 252.85 161.18 252.86 161.18 252.86 C 161.17 252.92 161.15 252.99 161.12 253.05 C 161.1 253.11 161.07 253.18 161.04 253.24 C 160.96 253.41 160.85 253.56 160.72 253.69 C 160.76 253.66 160.8 253.62 160.84 253.59 C 161.12 253.3 161.25 253 161.26 252.89 C 161.23 253.01 161.19 253.13 161.12 253.24 L 161.12 253.24 Z " fill="rgb(0,0,0)"/><path d=" M 160.43 253.84 C 160.41 253.85 160.39 253.87 160.36 253.89 C 160.39 253.87 160.41 253.86 160.43 253.84 Z " fill="rgb(0,0,0)"/><path d=" M 158.2 253.25 C 158.2 253.26 158.21 253.27 158.22 253.29 C 158.3 253.42 158.39 253.54 158.5 253.64 C 158.62 253.75 158.75 253.84 158.89 253.91 C 158.97 253.94 159.05 253.96 159.13 253.97 C 158.98 253.92 158.83 253.86 158.7 253.77 C 158.49 253.63 158.32 253.45 158.2 253.25 Z " fill="rgb(0,0,0)"/><path d=" M 160.26 253.95 C 160.26 253.95 160.3 253.93 160.35 253.9 C 160.34 253.9 160.33 253.91 160.32 253.91 L 160.26 253.95 Z " fill="rgb(0,0,0)"/></g><path d=" M 134 234.61 C 134 234.61 144.67 223.94 151.72 222.42" fill="rgb(0,0,0)"/><path d=" M 139.94 233.94 C 139.94 233.94 150.94 225.16 153.05 224.61" fill="rgb(0,0,0)"/></g></svg>