<svg width="430" height="56" viewBox="0 0 430 56" fill="none" xmlns="http://www.w3.org/2000/svg">
<g clip-path="url(#clip0_5_10)">
<path d="M50.6571 55.9943H63.9278L35.9708 6.17704C31.1597 -3.05241 19.1494 -1.00206 16.0705 6.17704L0.952583 34.1238C-3.01826 44.3813 6.06288 56.2355 16.3928 55.9943C26.9414 56.1321 34.4458 47.0922 37.2714 38.4141L30.872 27.6282L23.2468 41.3202C19.1149 48.8381 8.37633 42.5148 12.1515 35.9215L22.3721 18.3413C23.7302 15.7913 27.7011 14.4359 29.439 18.3413L50.6456 56L50.6571 55.9943Z" fill="#F3751F"/>
<path d="M41.5991 10.4324L48.2862 22.1544L50.8126 17.4335C51.9291 14.7743 55.2438 14.3378 56.8494 17.353L78.6258 55.9938H92L63.3006 5.38979C59.1974 -1.93864 48.1309 -1.63998 44.5398 5.38979L41.6049 10.4381L41.5991 10.4324Z" fill="#3A9FCF"/>
<path d="M99.7073 44.6769C99.5052 44.6769 99.3368 44.6096 99.2021 44.4749C99.0674 44.3401 99 44.1717 99 43.9697L99.7073 12.2941C99.7073 11.8226 99.9262 11.5869 100.364 11.5869H108.397C108.767 11.5869 109.02 11.7553 109.154 12.092L117.035 28.6623L124.916 12.092C125.085 11.7553 125.354 11.5869 125.725 11.5869H133.707C134.178 11.5869 134.414 11.8226 134.414 12.2941L135.071 43.9697C135.071 44.1717 135.003 44.3401 134.869 44.4749C134.734 44.6096 134.582 44.6769 134.414 44.6769H127.644C127.173 44.6769 126.937 44.4412 126.937 43.9697L126.634 32.6534C126.6 31.2388 126.617 29.757 126.684 28.2077C126.752 26.6247 126.819 25.1428 126.887 23.762H126.684C126.112 25.1091 125.489 26.5237 124.815 28.0056C124.142 29.4875 123.434 30.9189 122.693 32.2997L118.046 41.2921C117.877 41.6289 117.591 41.7974 117.187 41.7974H116.884C116.48 41.7974 116.21 41.6289 116.075 41.2921L111.377 32.2492C110.704 30.902 110.013 29.4875 109.306 28.0056C108.632 26.4901 108.009 25.0755 107.437 23.762H107.235C107.302 25.1765 107.369 26.6584 107.437 28.2077C107.504 29.757 107.521 31.2388 107.487 32.6534L107.184 43.9697C107.184 44.4412 106.948 44.6769 106.477 44.6769H99.7073ZM151.371 45.2832C147.599 45.2832 144.635 44.3906 142.48 42.6057C140.358 40.8206 139.297 38.1431 139.297 34.573V29.6727C139.297 26.1027 140.358 23.4252 142.48 21.6402C144.602 19.8551 147.566 18.9627 151.371 18.9627C155.177 18.9627 158.141 19.8551 160.263 21.6402C162.385 23.4252 163.445 26.1027 163.445 29.6727V34.573C163.445 38.1431 162.385 40.8206 160.263 42.6057C158.141 44.3906 155.177 45.2832 151.371 45.2832ZM151.371 38.463C152.752 38.463 153.763 38.1094 154.403 37.4021C155.042 36.6949 155.362 35.4993 155.362 33.8153V30.38C155.362 28.7297 155.042 27.551 154.403 26.8437C153.763 26.1364 152.752 25.7828 151.371 25.7828C149.991 25.7828 148.98 26.1364 148.34 26.8437C147.7 27.551 147.38 28.7297 147.38 30.38V33.8153C147.38 35.4993 147.7 36.6949 148.34 37.4021C148.98 38.1094 149.991 38.463 151.371 38.463ZM179.598 45.2832C178.083 45.2832 176.685 45.199 175.405 45.0306C174.159 44.8621 172.913 44.6938 171.667 44.5253C170.454 44.3233 169.158 44.1717 167.777 44.0707V10.8796C167.777 10.4081 168.012 10.1723 168.484 10.1723H175.153C175.624 10.1723 175.86 10.4081 175.86 10.8796V38.4126C176.365 38.4799 176.87 38.5641 177.375 38.6651C177.914 38.7325 178.47 38.7662 179.043 38.7662C180.289 38.7662 181.215 38.3957 181.821 37.6548C182.427 36.9138 182.73 35.8024 182.73 34.3205V29.2686C182.73 28.0561 182.511 27.1973 182.074 26.6921C181.669 26.1533 180.996 25.8838 180.053 25.8838C179.346 25.8838 178.571 26.0859 177.729 26.4901C176.921 26.8942 176.011 27.5173 175.001 28.3593L175.203 22.7011C176.517 21.4213 177.864 20.4782 179.245 19.872C180.659 19.2658 182.107 18.9627 183.589 18.9627C186.048 18.9627 187.867 19.6531 189.045 21.0339C190.224 22.3812 190.813 24.503 190.813 27.3994V35.0278C190.813 38.5305 189.904 41.1237 188.085 42.8077C186.3 44.458 183.471 45.2832 179.598 45.2832ZM196.013 44.6769C195.541 44.6769 195.306 44.4412 195.306 43.9697V20.2256C195.306 19.7878 195.541 19.5689 196.013 19.5689H202.682C203.153 19.5689 203.389 19.7878 203.389 20.2256V43.9697C203.389 44.4412 203.153 44.6769 202.682 44.6769H196.013ZM199.347 16.6893C198 16.6893 196.939 16.3525 196.165 15.6789C195.39 14.9716 195.003 14.0286 195.003 12.8498V11.7889C195.003 10.5765 195.39 9.65029 196.165 9.01038C196.939 8.33679 198 8 199.347 8C200.728 8 201.789 8.33679 202.53 9.01038C203.305 9.65029 203.692 10.5765 203.692 11.7889V12.8498C203.692 14.0286 203.305 14.9716 202.53 15.6789C201.789 16.3525 200.728 16.6893 199.347 16.6893ZM209.038 44.6769C208.566 44.6769 208.33 44.4412 208.33 43.9697V10.8796C208.33 10.4081 208.566 10.1723 209.038 10.1723H215.706C216.177 10.1723 216.413 10.4081 216.413 10.8796V43.9697C216.413 44.4412 216.177 44.6769 215.706 44.6769H209.038ZM222.407 44.6769C221.936 44.6769 221.7 44.4412 221.7 43.9697V20.2256C221.7 19.7878 221.936 19.5689 222.407 19.5689H229.076C229.547 19.5689 229.784 19.7878 229.784 20.2256V43.9697C229.784 44.4412 229.547 44.6769 229.076 44.6769H222.407ZM225.742 16.6893C224.394 16.6893 223.333 16.3525 222.559 15.6789C221.784 14.9716 221.397 14.0286 221.397 12.8498V11.7889C221.397 10.5765 221.784 9.65029 222.559 9.01038C223.333 8.33679 224.394 8 225.742 8C227.122 8 228.183 8.33679 228.925 9.01038C229.699 9.65029 230.086 10.5765 230.086 11.7889V12.8498C230.086 14.0286 229.699 14.9716 228.925 15.6789C228.183 16.3525 227.122 16.6893 225.742 16.6893ZM246.092 45.2832C243.834 45.2832 242.033 44.98 240.686 44.3739C239.339 43.7339 238.362 42.7067 237.756 41.2921C237.183 39.8776 236.897 38.0252 236.897 35.7351V26.2374H233.36C232.889 26.2374 232.653 26.0017 232.653 25.5302V20.2256C232.653 19.7878 232.889 19.5689 233.36 19.5689H237.15L238.009 13.5066C238.076 13.0688 238.328 12.8498 238.766 12.8498H244.272C244.744 12.8498 244.98 13.0856 244.98 13.5571V19.5689H251.093C251.564 19.5689 251.8 19.7878 251.8 20.2256V25.5302C251.8 26.0017 251.564 26.2374 251.093 26.2374H244.98V35.1288C244.98 36.2065 245.182 37.0316 245.586 37.6043C246.024 38.1431 246.714 38.4126 247.657 38.4126C248.196 38.4126 248.736 38.362 249.274 38.261C249.846 38.16 250.436 38.0084 251.042 37.8063C251.311 37.7053 251.513 37.7053 251.648 37.8063C251.784 37.9074 251.85 38.0926 251.85 38.362V43.6666C251.85 44.037 251.666 44.3064 251.295 44.4749C250.587 44.7442 249.762 44.9464 248.82 45.0811C247.91 45.2158 247 45.2832 246.092 45.2832ZM260.833 54.023C260.26 54.023 260.075 53.7535 260.278 53.2147L263.41 44.6264L254.417 20.3266C254.215 19.8215 254.4 19.5689 254.972 19.5689H262.198C262.635 19.5689 262.904 19.7541 263.006 20.1246L265.481 28.1571C265.817 29.2349 266.121 30.38 266.39 31.5925C266.66 32.805 266.913 34.0679 267.148 35.3814H267.299C267.535 34.0679 267.788 32.8217 268.057 31.643C268.327 30.4642 268.613 29.319 268.916 28.2077L271.391 20.1246C271.493 19.7541 271.762 19.5689 272.199 19.5689H279.374C279.609 19.5689 279.778 19.6362 279.878 19.771C280.013 19.9057 280.031 20.0909 279.929 20.3266L268.057 53.4673C267.923 53.8378 267.653 54.023 267.249 54.023H260.833ZM294.593 45.2832C291.898 45.2832 289.676 44.8958 287.924 44.1212C286.206 43.3129 284.943 42.2015 284.135 40.7869C283.36 39.3724 283.041 37.7389 283.176 35.8866C283.209 35.2803 283.411 34.9772 283.782 34.9772H286.964C287.368 34.9772 287.57 35.2467 287.57 35.7855C287.57 37.8401 288.177 39.3219 289.389 40.2312C290.602 41.107 292.454 41.5448 294.946 41.5448C297.337 41.5448 299.14 41.1237 300.352 40.2818C301.598 39.4061 302.221 38.0926 302.221 36.3412C302.221 35.4656 302.07 34.7246 301.766 34.1184C301.497 33.4785 301.025 32.9228 300.352 32.4513C299.678 31.9798 298.769 31.5083 297.624 31.0368L290.198 27.9551C288.648 27.3152 287.385 26.6079 286.408 25.8332C285.465 25.0249 284.775 24.1156 284.337 23.1053C283.933 22.0612 283.731 20.8824 283.731 19.5689C283.764 16.7735 284.69 14.6517 286.51 13.2035C288.362 11.7553 291.039 11.0311 294.542 11.0311C296.933 11.0311 299.004 11.3848 300.756 12.092C302.507 12.7993 303.837 13.8265 304.747 15.1737C305.656 16.5209 306.026 18.1712 305.858 20.1246C305.791 20.7646 305.606 21.0845 305.302 21.0845H302.07C301.901 21.0845 301.766 21.0171 301.666 20.8824C301.598 20.7477 301.581 20.4951 301.615 20.1246C301.75 18.407 301.16 17.0934 299.846 16.1841C298.567 15.2411 296.748 14.7696 294.391 14.7696C292.302 14.7696 290.719 15.14 289.641 15.881C288.597 16.6219 288.058 17.767 288.025 19.3163C288.025 20.1246 288.16 20.8319 288.429 21.4381C288.732 22.0444 289.221 22.6001 289.894 23.1053C290.602 23.6104 291.561 24.1156 292.773 24.6209L300.099 27.7025C301.648 28.3424 302.894 29.0497 303.837 29.8243C304.781 30.5989 305.454 31.5083 305.858 32.5524C306.297 33.5627 306.515 34.7921 306.515 36.2402C306.515 39.0693 305.555 41.2921 303.635 42.9087C301.715 44.4917 298.702 45.2832 294.593 45.2832ZM329.015 54.023C328.677 54.023 328.509 53.8545 328.509 53.5177V23.762C327.667 23.5935 326.757 23.4589 325.781 23.3578C324.804 23.2568 323.945 23.2063 323.205 23.2063C320.948 23.2063 319.314 23.762 318.304 24.8734C317.294 25.9511 316.789 27.6856 316.789 30.0769V35.6339C316.789 37.6885 317.109 39.1872 317.748 40.1302C318.422 41.0395 319.483 41.4942 320.932 41.4942C322.144 41.4942 323.356 41.1743 324.568 40.5343C325.781 39.8945 327.33 38.7494 329.217 37.0991L329.064 41.1911C327.516 42.6393 326.016 43.6834 324.568 44.3233C323.121 44.9633 321.587 45.2832 319.971 45.2832C317.445 45.2832 315.559 44.5085 314.313 42.9593C313.1 41.41 312.494 39.0524 312.494 35.8866V29.6727C312.494 26.271 313.353 23.7114 315.071 21.9938C316.789 20.2762 319.365 19.4173 322.801 19.4173C324.047 19.4173 325.175 19.5015 326.185 19.6699C327.195 19.8384 328.222 20.0236 329.266 20.2256C330.311 20.4278 331.49 20.5793 332.803 20.6803V53.5177C332.803 53.8545 332.635 54.023 332.298 54.023H329.015ZM347.051 45.2832C344.895 45.2832 343.244 44.559 342.099 43.1108C340.955 41.6626 340.382 39.5745 340.382 36.8465V20.5288C340.382 20.192 340.551 20.0236 340.887 20.0236H344.17C344.507 20.0236 344.676 20.192 344.676 20.5288V36.6444C344.676 38.2947 344.962 39.524 345.535 40.3323C346.141 41.107 347.067 41.4942 348.313 41.4942C349.56 41.4942 350.805 41.107 352.051 40.3323C353.332 39.5577 354.914 38.2104 356.801 36.2908L356.699 40.2818C355.622 41.3932 354.544 42.3193 353.467 43.0603C352.388 43.8012 351.311 44.357 350.233 44.7275C349.189 45.0979 348.128 45.2832 347.051 45.2832ZM357.154 44.6769C356.986 44.6769 356.851 44.6432 356.75 44.5759C356.649 44.4749 356.582 44.3401 356.548 44.1717C356.447 43.5318 356.362 42.875 356.295 42.2015C356.228 41.5279 356.178 40.8375 356.144 40.1302L355.891 38.0084V20.5288C355.891 20.192 356.06 20.0236 356.397 20.0236H359.68C360.016 20.0236 360.185 20.192 360.185 20.5288V38.5136C360.185 39.4229 360.202 40.366 360.236 41.3427C360.303 42.3193 360.404 43.2624 360.539 44.1717C360.606 44.5085 360.422 44.6769 359.983 44.6769H357.154ZM382.06 44.6769C381.858 44.6769 381.723 44.6096 381.656 44.4749C381.588 44.3401 381.521 44.1717 381.454 43.9697C381.419 43.7002 381.335 43.1276 381.201 42.252C381.1 41.3427 381.033 40.5343 380.999 39.8271L380.847 37.9074V27.854C380.847 26.17 380.511 24.9745 379.836 24.2672C379.163 23.5599 377.985 23.2063 376.3 23.2063C373.269 23.2063 371.753 24.2504 371.753 26.3385C371.753 26.6753 371.602 26.8437 371.299 26.8437H367.965C367.628 26.8437 367.442 26.5237 367.409 25.8838C367.24 23.964 367.982 22.4149 369.631 21.2361C371.316 20.0236 373.589 19.4173 376.452 19.4173C379.383 19.4173 381.554 20.1077 382.969 21.4886C384.418 22.8695 385.142 24.9576 385.142 27.753V38.5641C385.142 39.7429 385.175 40.8038 385.242 41.7468C385.31 42.6561 385.394 43.4477 385.495 44.1212C385.562 44.4917 385.394 44.6769 384.99 44.6769H382.06ZM372.41 45.2832C370.457 45.2832 368.958 44.6938 367.915 43.515C366.904 42.3362 366.399 40.6186 366.399 38.362C366.399 36.6107 366.736 35.1793 367.409 34.0679C368.117 32.9564 369.227 32.0977 370.743 31.4914C372.293 30.8852 374.347 30.481 376.906 30.2789L381.656 29.8748V33.1586L376.806 33.5627C374.482 33.7647 372.883 34.1858 372.006 34.8257C371.131 35.4656 370.692 36.5434 370.692 38.059C370.692 39.204 370.929 40.0628 371.4 40.6354C371.871 41.208 372.579 41.4942 373.522 41.4942C374.633 41.4942 375.796 41.1237 377.008 40.3828C378.22 39.6081 379.82 38.1936 381.807 36.1392V39.9282C380.628 41.208 379.517 42.252 378.473 43.0603C377.463 43.8349 376.469 44.3906 375.492 44.7275C374.515 45.0979 373.489 45.2832 372.41 45.2832ZM393.232 44.6769C392.894 44.6769 392.726 44.5085 392.726 44.1717V26.0354C392.726 25.0924 392.692 24.1829 392.625 23.3073C392.592 22.398 392.508 21.4886 392.373 20.5793C392.306 20.2088 392.474 20.0236 392.878 20.0236H395.96C396.128 20.0236 396.246 20.0573 396.313 20.1246C396.415 20.192 396.482 20.3099 396.515 20.4782C396.65 21.1182 396.751 21.8591 396.819 22.7011C396.886 23.5094 396.919 24.1998 396.919 24.7723L397.021 27.4498V44.1717C397.021 44.5085 396.852 44.6769 396.515 44.6769H393.232ZM396.464 28.9654L396.364 24.8229C397.072 23.7788 397.88 22.8527 398.788 22.0444C399.732 21.2361 400.675 20.5961 401.618 20.1246C402.595 19.6531 403.487 19.4173 404.295 19.4173C404.902 19.4173 405.357 19.4679 405.659 19.5689C405.828 19.6026 405.929 19.6699 405.963 19.771C406.03 19.8384 406.08 19.9394 406.114 20.0741C406.181 20.7813 406.198 21.5054 406.165 22.2464C406.165 22.9874 406.114 23.6947 406.013 24.3682C405.979 24.5366 405.895 24.6545 405.761 24.7219C405.659 24.7892 405.525 24.806 405.357 24.7723C405.086 24.705 404.8 24.6545 404.498 24.6209C404.194 24.5871 403.874 24.5703 403.537 24.5703C402.695 24.5703 401.854 24.7555 401.012 25.126C400.169 25.4965 399.361 26.0185 398.586 26.6921C397.812 27.332 397.105 28.0898 396.464 28.9654ZM419.637 45.2832C416.403 45.2832 413.912 44.5253 412.16 43.0098C410.442 41.4942 409.583 39.2545 409.583 36.2908V29.218C409.583 26.0185 410.442 23.5935 412.16 21.9433C413.878 20.2593 416.37 19.4173 419.637 19.4173C422.903 19.4173 425.38 20.2425 427.063 21.8928C428.781 23.5094 429.64 25.867 429.64 28.9654V32.906C429.64 33.2428 429.472 33.4111 429.134 33.4111H413.878V35.0278C413.878 37.2843 414.349 38.9346 415.293 39.9786C416.236 40.9891 417.768 41.4942 419.89 41.4942C421.473 41.4942 422.685 41.2416 423.527 40.7365C424.403 40.1975 424.841 39.4229 424.841 38.4126C424.841 38.0421 425.025 37.8568 425.396 37.8568H428.68C428.95 37.8568 429.118 38.0084 429.185 38.3115C429.32 40.467 428.528 42.1678 426.81 43.414C425.093 44.6601 422.701 45.2832 419.637 45.2832ZM413.878 29.7233H425.345V29.4202C425.345 27.2984 424.874 25.7322 423.931 24.7219C422.988 23.7114 421.573 23.2063 419.688 23.2063C417.734 23.2063 416.269 23.7283 415.293 24.7723C414.349 25.8164 413.878 27.3825 413.878 29.4706V29.7233Z" fill="#363636"/>
</g>
<defs>
<clipPath id="clip0_5_10">
<rect width="430" height="56" fill="white"/>
</clipPath>
</defs>
</svg>
