<svg width="124" height="99" viewBox="0 0 124 99" fill="none" xmlns="http://www.w3.org/2000/svg">
<path d="M50.6571 63.9943H63.9278L35.9708 14.177C31.1597 4.94759 19.1494 6.99794 16.0705 14.177L0.952583 42.1238C-3.01826 52.3813 6.06288 64.2355 16.3928 63.9943C26.9414 64.1321 34.4458 55.0922 37.2714 46.4141L30.872 35.6282L23.2468 49.3202C19.1149 56.8381 8.37633 50.5148 12.1515 43.9215L22.3721 26.3413C23.7302 23.7913 27.7011 22.4359 29.439 26.3413L50.6456 64L50.6571 63.9943Z" fill="#F3751F"/>
<path d="M41.5991 18.4324L48.2862 30.1544L50.8126 25.4335C51.9291 22.7743 55.2438 22.3378 56.8494 25.353L78.6258 63.9938H92L63.3006 13.3898C59.1974 6.06136 48.1309 6.36002 44.5398 13.3898L41.6049 18.4381L41.5991 18.4324Z" fill="#25B544"/>
<path d="M91.44 36C91.1467 36 91 35.84 91 35.52V31.24H77.8C77.5067 31.24 77.36 31.08 77.36 30.76V30.16C77.36 30 77.36 29.88 77.36 29.8C77.3867 29.72 77.4267 29.6133 77.48 29.48L87.68 10.16C87.84 9.92 88.04 9.8 88.28 9.8H92.28C92.44 9.8 92.56 9.85333 92.64 9.96C92.72 10.04 92.7067 10.16 92.6 10.32L83.8 27.12H91.08L91.4 19.04C91.4 18.72 91.5467 18.56 91.84 18.56H95.24C95.56 18.56 95.72 18.72 95.72 19.04V27.12H98.44C98.76 27.12 98.92 27.2667 98.92 27.56V30.76C98.92 31.08 98.76 31.24 98.44 31.24H95.72V35.52C95.72 35.84 95.56 36 95.24 36H91.44ZM111.613 36.48C108.413 36.48 105.946 35.8533 104.213 34.6C102.506 33.3467 101.653 31.4533 101.653 28.92C101.653 27.2133 102.053 25.7733 102.853 24.6C103.679 23.4267 104.813 22.5733 106.253 22.04C105.133 21.5333 104.279 20.8133 103.693 19.88C103.133 18.92 102.853 17.6667 102.853 16.12C102.853 13.9867 103.599 12.32 105.092 11.12C106.586 9.92 108.759 9.32 111.613 9.32C114.466 9.32 116.639 9.92 118.133 11.12C119.626 12.32 120.372 13.9867 120.372 16.12C120.372 17.6667 120.079 18.92 119.493 19.88C118.933 20.8133 118.079 21.5333 116.933 22.04C118.399 22.5733 119.533 23.4267 120.333 24.6C121.159 25.7733 121.573 27.2133 121.573 28.92C121.573 31.4533 120.706 33.3467 118.973 34.6C117.266 35.8533 114.813 36.48 111.613 36.48ZM111.613 32.6C113.346 32.6 114.639 32.2667 115.493 31.6C116.373 30.9333 116.813 29.9867 116.813 28.76V28.16C116.813 26.7733 116.346 25.72 115.413 25C114.506 24.2533 113.239 23.88 111.613 23.88C109.986 23.88 108.706 24.2533 107.773 25C106.866 25.72 106.413 26.7733 106.413 28.16V28.76C106.413 29.9867 106.839 30.9333 107.693 31.6C108.573 32.2667 109.879 32.6 111.613 32.6ZM111.613 20.4C112.946 20.4 113.959 20.1067 114.653 19.52C115.373 18.9067 115.733 18.0667 115.733 17V16.4C115.733 15.3867 115.373 14.5867 114.653 14C113.959 13.3867 112.946 13.08 111.613 13.08C110.279 13.08 109.253 13.3867 108.533 14C107.839 14.5867 107.493 15.3867 107.493 16.4V17C107.493 18.0667 107.839 18.9067 108.533 19.52C109.253 20.1067 110.279 20.4 111.613 20.4Z" fill="#25B544"/>
<path d="M1.704 92C1.624 92 1.56 91.976 1.512 91.928C1.464 91.864 1.44 91.792 1.44 91.712L1.752 76.568C1.752 76.376 1.848 76.28 2.04 76.28H5.136C5.28 76.28 5.384 76.352 5.448 76.496L9.456 85.232L13.392 76.496C13.472 76.352 13.584 76.28 13.728 76.28H16.824C17 76.28 17.088 76.376 17.088 76.568L17.424 91.712C17.424 91.792 17.4 91.864 17.352 91.928C17.304 91.976 17.232 92 17.136 92H14.88C14.688 92 14.592 91.904 14.592 91.712L14.4 83.96C14.384 83.32 14.392 82.68 14.424 82.04C14.456 81.384 14.48 80.744 14.496 80.12H14.424C14.168 80.744 13.896 81.376 13.608 82.016C13.336 82.64 13.048 83.256 12.744 83.864L9.792 90.08C9.728 90.208 9.616 90.272 9.456 90.272H9.36C9.216 90.272 9.112 90.208 9.048 90.08L6.072 83.792C5.768 83.2 5.48 82.592 5.208 81.968C4.936 81.328 4.68 80.712 4.44 80.12H4.368C4.4 80.728 4.424 81.36 4.44 82.016C4.456 82.656 4.456 83.288 4.44 83.912L4.248 91.712C4.248 91.904 4.16 92 3.984 92H1.704ZM25.3718 92.288C23.6758 92.288 22.3638 91.888 21.4358 91.088C20.5238 90.272 20.0678 89.04 20.0678 87.392V84.8C20.0678 83.168 20.5238 81.944 21.4358 81.128C22.3478 80.312 23.6598 79.904 25.3718 79.904C27.0678 79.904 28.3718 80.312 29.2838 81.128C30.1958 81.944 30.6518 83.168 30.6518 84.8V87.392C30.6518 89.04 30.1958 90.272 29.2838 91.088C28.3878 91.888 27.0838 92.288 25.3718 92.288ZM25.3718 89.864C26.2358 89.864 26.8598 89.648 27.2438 89.216C27.6278 88.768 27.8198 88.072 27.8198 87.128V85.064C27.8198 84.12 27.6278 83.432 27.2438 83C26.8598 82.552 26.2358 82.328 25.3718 82.328C24.5078 82.328 23.8758 82.552 23.4758 83C23.0918 83.432 22.8998 84.12 22.8998 85.064V87.128C22.8998 88.072 23.0918 88.768 23.4758 89.216C23.8758 89.648 24.5078 89.864 25.3718 89.864ZM38.4984 92.288C37.8904 92.288 37.3224 92.248 36.7944 92.168C36.2824 92.104 35.7544 92.032 35.2104 91.952C34.6824 91.872 34.0904 91.808 33.4344 91.76V75.896C33.4344 75.704 33.5224 75.608 33.6984 75.608H35.9784C36.1704 75.608 36.2664 75.704 36.2664 75.896V89.696C36.5704 89.76 36.8904 89.816 37.2264 89.864C37.5784 89.896 37.9064 89.912 38.2104 89.912C39.0744 89.912 39.7144 89.688 40.1304 89.24C40.5464 88.776 40.7544 88.088 40.7544 87.176V84.632C40.7544 83.848 40.6184 83.272 40.3464 82.904C40.0744 82.536 39.6504 82.352 39.0744 82.352C38.6104 82.352 38.1304 82.488 37.6344 82.76C37.1544 83.032 36.5544 83.488 35.8344 84.128L35.9064 81.824C36.6104 81.152 37.2984 80.664 37.9704 80.36C38.6424 80.056 39.3384 79.904 40.0584 79.904C41.2264 79.904 42.1064 80.256 42.6984 80.96C43.2904 81.648 43.5864 82.712 43.5864 84.152V87.416C43.5864 89.048 43.1704 90.272 42.3384 91.088C41.5064 91.888 40.2264 92.288 38.4984 92.288ZM46.6594 92C46.4834 92 46.3954 91.904 46.3954 91.712V80.48C46.3954 80.288 46.4834 80.192 46.6594 80.192H48.9394C49.1314 80.192 49.2274 80.288 49.2274 80.48V91.712C49.2274 91.904 49.1314 92 48.9394 92H46.6594ZM47.8114 78.488C47.2674 78.488 46.8514 78.344 46.5634 78.056C46.2914 77.768 46.1554 77.4 46.1554 76.952V76.592C46.1554 76.128 46.2914 75.76 46.5634 75.488C46.8514 75.2 47.2674 75.056 47.8114 75.056C48.3554 75.056 48.7634 75.2 49.0354 75.488C49.3074 75.76 49.4434 76.128 49.4434 76.592V76.952C49.4434 77.4 49.3074 77.768 49.0354 78.056C48.7634 78.344 48.3554 78.488 47.8114 78.488ZM52.5422 92C52.3662 92 52.2782 91.904 52.2782 91.712V75.896C52.2782 75.704 52.3662 75.608 52.5422 75.608H54.8222C55.0142 75.608 55.1102 75.704 55.1102 75.896V91.712C55.1102 91.904 55.0142 92 54.8222 92H52.5422ZM58.8938 92C58.7178 92 58.6298 91.904 58.6298 91.712V80.48C58.6298 80.288 58.7178 80.192 58.8938 80.192H61.1738C61.3658 80.192 61.4618 80.288 61.4618 80.48V91.712C61.4618 91.904 61.3658 92 61.1738 92H58.8938ZM60.0458 78.488C59.5018 78.488 59.0858 78.344 58.7978 78.056C58.5258 77.768 58.3898 77.4 58.3898 76.952V76.592C58.3898 76.128 58.5258 75.76 58.7978 75.488C59.0858 75.2 59.5018 75.056 60.0458 75.056C60.5898 75.056 60.9978 75.2 61.2698 75.488C61.5418 75.76 61.6778 76.128 61.6778 76.592V76.952C61.6778 77.4 61.5418 77.768 61.2698 78.056C60.9978 78.344 60.5898 78.488 60.0458 78.488ZM69.1686 92.288C68.2406 92.288 67.4966 92.144 66.9366 91.856C66.3926 91.568 65.9926 91.12 65.7366 90.512C65.4966 89.904 65.3766 89.128 65.3766 88.184V82.568H63.6246C63.4326 82.568 63.3366 82.472 63.3366 82.28V80.48C63.3366 80.288 63.4326 80.192 63.6246 80.192H65.4726L65.7846 77.312C65.8166 77.136 65.9206 77.048 66.0966 77.048H67.9206C68.1126 77.048 68.2086 77.144 68.2086 77.336V80.192H71.4966C71.6886 80.192 71.7846 80.288 71.7846 80.48V82.28C71.7846 82.472 71.6886 82.568 71.4966 82.568H68.2086V88.04C68.2086 88.68 68.3286 89.144 68.5686 89.432C68.8086 89.72 69.2086 89.864 69.7686 89.864C70.0566 89.864 70.3446 89.832 70.6326 89.768C70.9366 89.704 71.2166 89.616 71.4726 89.504C71.5686 89.472 71.6486 89.48 71.7126 89.528C71.7766 89.56 71.8086 89.624 71.8086 89.72V91.568C71.8086 91.728 71.7366 91.832 71.5926 91.88C71.2726 92.008 70.9046 92.104 70.4886 92.168C70.0886 92.248 69.6486 92.288 69.1686 92.288ZM76.1586 96.44C75.9346 96.44 75.8706 96.328 75.9666 96.104L77.5746 91.904L73.1826 80.528C73.1026 80.304 73.1746 80.192 73.3986 80.192H75.8706C76.0306 80.192 76.1346 80.272 76.1826 80.432L77.9106 85.352C78.0866 85.848 78.2546 86.376 78.4146 86.936C78.5746 87.48 78.7266 88.032 78.8706 88.592H78.9186C79.0786 88.032 79.2386 87.48 79.3986 86.936C79.5586 86.392 79.7266 85.864 79.9026 85.352L81.6306 80.432C81.6786 80.272 81.7826 80.192 81.9426 80.192H84.3426C84.4386 80.192 84.5106 80.224 84.5586 80.288C84.6066 80.352 84.6146 80.432 84.5826 80.528L78.7026 96.224C78.6386 96.368 78.5346 96.44 78.3906 96.44H76.1586ZM93.6478 92C93.4878 92 93.4078 91.92 93.4078 91.76V88.904H85.4878C85.3278 88.904 85.2478 88.824 85.2478 88.664V88.52C85.2478 88.44 85.2478 88.384 85.2478 88.352C85.2638 88.304 85.2878 88.248 85.3198 88.184L91.7758 76.472C91.8558 76.344 91.9598 76.28 92.0878 76.28H93.6718C93.7518 76.28 93.8078 76.304 93.8398 76.352C93.8878 76.4 93.8878 76.464 93.8398 76.544L88.0318 87.056H93.4318V81.8C93.4318 81.64 93.5118 81.56 93.6718 81.56H95.1358C95.2958 81.56 95.3758 81.64 95.3758 81.8V87.056H97.1998C97.3598 87.056 97.4398 87.136 97.4398 87.296V88.664C97.4398 88.824 97.3598 88.904 97.1998 88.904H95.3758V91.76C95.3758 91.92 95.2958 92 95.1358 92H93.6478ZM104.928 92.288C103.152 92.288 101.776 91.92 100.8 91.184C99.8236 90.432 99.3356 89.296 99.3356 87.776C99.3356 86.736 99.5756 85.864 100.056 85.16C100.552 84.44 101.216 83.928 102.048 83.624C101.36 83.304 100.848 82.88 100.512 82.352C100.176 81.808 100.008 81.056 100.008 80.096C100.008 78.832 100.432 77.832 101.28 77.096C102.128 76.36 103.344 75.992 104.928 75.992C106.512 75.992 107.728 76.36 108.576 77.096C109.424 77.832 109.848 78.832 109.848 80.096C109.848 81.056 109.68 81.808 109.344 82.352C109.008 82.88 108.496 83.304 107.808 83.624C108.64 83.928 109.296 84.44 109.776 85.16C110.272 85.864 110.52 86.736 110.52 87.776C110.52 89.296 110.032 90.432 109.056 91.184C108.08 91.92 106.704 92.288 104.928 92.288ZM104.928 90.56C106.112 90.56 107 90.328 107.592 89.864C108.184 89.4 108.48 88.744 108.48 87.896V87.488C108.48 86.512 108.16 85.76 107.52 85.232C106.896 84.688 106.032 84.416 104.928 84.416C103.824 84.416 102.952 84.688 102.312 85.232C101.688 85.76 101.376 86.512 101.376 87.488V87.896C101.376 88.744 101.672 89.4 102.264 89.864C102.856 90.328 103.744 90.56 104.928 90.56ZM104.928 82.832C105.856 82.832 106.568 82.616 107.064 82.184C107.56 81.752 107.808 81.16 107.808 80.408V80.048C107.808 79.344 107.56 78.784 107.064 78.368C106.584 77.936 105.872 77.72 104.928 77.72C104 77.72 103.288 77.936 102.792 78.368C102.296 78.784 102.048 79.344 102.048 80.048V80.408C102.048 81.16 102.296 81.752 102.792 82.184C103.288 82.616 104 82.832 104.928 82.832Z" fill="#25B544"/>
</svg>
